<svg width="506" height="204" viewBox="0 0 506 204" fill="none" xmlns="http://www.w3.org/2000/svg">
<path d="M9.77469 44.6202C-2.29377 34.1421 -3.5804 27.3023 8.12023 12.634L23.0106 20.9063C7.56894 29.1786 6.11774 33.4782 9.77469 44.6202Z" fill="#006494"/>
<path d="M11.4293 33.039C15.7585 32.312 18.5367 29.5689 23.562 24.2153C28.1981 25.9602 30.8627 30.2816 29.6284 34.142C25.3444 47.5402 20.7383 44.2605 11.4293 33.039Z" fill="#006494"/>
<path d="M90.2919 117.968C90.2919 117.968 87.5343 171.462 88.0859 183.044C88.6376 194.625 98.4271 201.172 114.006 204L90.2919 117.968Z" fill="#006494"/>
<path d="M81.4683 172.014C68.2323 163.19 69.3352 150.506 85.3287 114.659C83.1225 145.542 83.1225 146.094 81.4683 172.014Z" fill="#006494"/>
<path d="M115.109 121.277C42.7717 89.4715 19.9322 76.2012 21.3559 63.3709C25.9162 38.1206 47.2758 38.0027 55.5481 41.3115C63.8204 44.6203 76.282 60.3503 87.5343 76.6064L68.2323 62.2678L115.109 121.277Z" fill="#006494"/>
<path d="M25.2165 19.2519C22.7855 11.8816 23.3838 9.45363 27.4225 7.67067C35.6947 4.01852 43.967 20.9063 32.3858 22.5608L36.7977 29.7295C44.8179 30.2638 49.5288 31.9659 58.3057 37.4503C59.9602 27.5236 34.0403 1.34496 27.4225 0.500849C15.7871 -0.983253 11.3847 0.614839 7.56894 8.22166L25.2165 19.2519Z" fill="#006494"/>
<path d="M178.724 89.6956V38.0909H189.635V59.3829H211.783V38.0909H222.669V89.6956H211.783V68.3785H189.635V89.6956H178.724ZM248.95 90.4516C245.036 90.4516 241.651 89.6201 238.795 87.957C235.956 86.2772 233.764 83.9422 232.219 80.9521C230.673 77.9452 229.901 74.4595 229.901 70.4951C229.901 66.497 230.673 63.003 232.219 60.0128C233.764 57.0059 235.956 54.6709 238.795 53.0079C241.651 51.3281 245.036 50.4881 248.95 50.4881C252.864 50.4881 256.24 51.3281 259.079 53.0079C261.935 54.6709 264.136 57.0059 265.681 60.0128C267.227 63.003 267.999 66.497 267.999 70.4951C267.999 74.4595 267.227 77.9452 265.681 80.9521C264.136 83.9422 261.935 86.2772 259.079 87.957C256.24 89.6201 252.864 90.4516 248.95 90.4516ZM249 82.1364C250.781 82.1364 252.268 81.6324 253.46 80.6245C254.653 79.5998 255.552 78.2055 256.157 76.4417C256.778 74.6779 257.089 72.6705 257.089 70.4195C257.089 68.1685 256.778 66.1611 256.157 64.3972C255.552 62.6334 254.653 61.2391 253.46 60.2144C252.268 59.1897 250.781 58.6774 249 58.6774C247.203 58.6774 245.691 59.1897 244.465 60.2144C243.255 61.2391 242.34 62.6334 241.718 64.3972C241.114 66.1611 240.811 68.1685 240.811 70.4195C240.811 72.6705 241.114 74.6779 241.718 76.4417C242.34 78.2055 243.255 79.5998 244.465 80.6245C245.691 81.6324 247.203 82.1364 249 82.1364ZM295.566 50.9921V59.0553H272.258V50.9921H295.566ZM277.549 41.7194H288.283V77.8024C288.283 78.7935 288.435 79.5662 288.737 80.1205C289.039 80.6581 289.459 81.0361 289.997 81.2544C290.551 81.4728 291.19 81.582 291.912 81.582C292.416 81.582 292.92 81.54 293.424 81.456C293.928 81.3552 294.314 81.2796 294.583 81.2292L296.271 89.2169C295.734 89.3849 294.978 89.5781 294.003 89.7964C293.029 90.0316 291.845 90.1744 290.45 90.2248C287.864 90.3256 285.596 89.9812 283.647 89.1917C281.715 88.4022 280.212 87.1759 279.137 85.5128C278.062 83.8498 277.532 81.75 277.549 79.2134V41.7194ZM319.781 90.4516C315.799 90.4516 312.372 89.6453 309.5 88.0326C306.644 86.4032 304.444 84.1018 302.898 81.1285C301.353 78.1383 300.58 74.6023 300.58 70.5203C300.58 66.539 301.353 63.045 302.898 60.038C304.444 57.0311 306.619 54.6877 309.424 53.0079C312.246 51.3281 315.556 50.4881 319.352 50.4881C321.906 50.4881 324.282 50.8997 326.483 51.7228C328.7 52.5291 330.632 53.747 332.279 55.3765C333.942 57.0059 335.235 59.0553 336.159 61.5247C337.083 63.9773 337.545 66.8498 337.545 70.1423V73.0904H304.864V66.4382H327.441C327.441 64.8928 327.105 63.5237 326.433 62.331C325.761 61.1383 324.828 60.206 323.636 59.5341C322.46 58.8454 321.091 58.501 319.529 58.501C317.899 58.501 316.454 58.8789 315.195 59.6349C313.951 60.374 312.977 61.3735 312.272 62.6334C311.566 63.8765 311.205 65.2623 311.188 66.791V73.1156C311.188 75.0306 311.541 76.6853 312.246 78.0795C312.969 79.4738 313.985 80.5489 315.295 81.3048C316.606 82.0608 318.159 82.4387 319.957 82.4387C321.15 82.4387 322.241 82.2707 323.233 81.9348C324.224 81.5988 325.072 81.0949 325.778 80.4229C326.483 79.751 327.021 78.9279 327.39 77.9536L337.318 78.6087C336.814 80.9941 335.781 83.0771 334.219 84.8577C332.673 86.6215 330.674 87.999 328.222 88.9901C325.786 89.9644 322.972 90.4516 319.781 90.4516ZM355.284 38.0909V89.6956H344.55V38.0909H355.284ZM178.724 175.696V124.091H199.386C203.183 124.091 206.349 124.654 208.886 125.779C211.422 126.905 213.329 128.467 214.606 130.466C215.882 132.448 216.521 134.733 216.521 137.32C216.521 139.335 216.117 141.108 215.311 142.636C214.505 144.148 213.396 145.391 211.985 146.366C210.591 147.323 208.995 148.003 207.198 148.407V148.911C209.163 148.995 211.002 149.549 212.716 150.574C214.446 151.598 215.849 153.035 216.924 154.882C217.999 156.713 218.536 158.897 218.536 161.434C218.536 164.172 217.856 166.616 216.495 168.766C215.152 170.9 213.161 172.588 210.524 173.831C207.886 175.074 204.636 175.696 200.772 175.696H178.724ZM189.635 166.776H198.53C201.57 166.776 203.787 166.196 205.182 165.037C206.576 163.861 207.273 162.299 207.273 160.35C207.273 158.922 206.929 157.663 206.24 156.571C205.551 155.479 204.569 154.622 203.292 154C202.032 153.379 200.529 153.068 198.782 153.068H189.635V166.776ZM189.635 145.685H197.723C199.218 145.685 200.545 145.425 201.704 144.904C202.88 144.367 203.804 143.611 204.476 142.636C205.165 141.662 205.509 140.495 205.509 139.134C205.509 137.269 204.846 135.766 203.519 134.624C202.208 133.481 200.344 132.91 197.925 132.91H189.635V145.685ZM225.434 175.696V136.992H235.841V143.745H236.244C236.95 141.343 238.134 139.529 239.797 138.302C241.46 137.059 243.375 136.438 245.542 136.438C246.08 136.438 246.659 136.471 247.281 136.539C247.902 136.606 248.448 136.698 248.918 136.816V146.34C248.415 146.189 247.717 146.055 246.827 145.937C245.937 145.82 245.122 145.761 244.383 145.761C242.804 145.761 241.393 146.105 240.15 146.794C238.923 147.466 237.949 148.407 237.227 149.616C236.521 150.826 236.168 152.22 236.168 153.799V175.696H225.434ZM264.396 176.426C261.927 176.426 259.726 175.998 257.794 175.141C255.863 174.268 254.334 172.983 253.208 171.286C252.1 169.573 251.545 167.439 251.545 164.886C251.545 162.736 251.94 160.93 252.73 159.468C253.519 158.007 254.594 156.831 255.955 155.941C257.316 155.05 258.861 154.378 260.591 153.925C262.338 153.471 264.169 153.152 266.084 152.967C268.335 152.732 270.15 152.514 271.527 152.312C272.905 152.094 273.904 151.775 274.526 151.355C275.147 150.935 275.458 150.313 275.458 149.49V149.339C275.458 147.743 274.954 146.508 273.946 145.635C272.955 144.761 271.544 144.325 269.713 144.325C267.781 144.325 266.244 144.753 265.102 145.61C263.959 146.45 263.203 147.508 262.834 148.785L252.906 147.978C253.41 145.626 254.401 143.594 255.879 141.88C257.358 140.15 259.264 138.823 261.599 137.899C263.951 136.958 266.672 136.488 269.763 136.488C271.913 136.488 273.971 136.74 275.937 137.244C277.919 137.748 279.674 138.529 281.203 139.587C282.748 140.646 283.966 142.006 284.857 143.669C285.747 145.316 286.192 147.29 286.192 149.591V175.696H276.012V170.329H275.71C275.088 171.538 274.257 172.605 273.215 173.529C272.174 174.436 270.922 175.15 269.461 175.67C267.999 176.174 266.311 176.426 264.396 176.426ZM267.47 169.018C269.049 169.018 270.444 168.708 271.653 168.086C272.863 167.448 273.812 166.591 274.5 165.516C275.189 164.441 275.533 163.223 275.533 161.862V157.755C275.198 157.973 274.736 158.175 274.148 158.36C273.576 158.528 272.93 158.687 272.207 158.838C271.485 158.973 270.763 159.099 270.04 159.216C269.318 159.317 268.663 159.41 268.075 159.494C266.815 159.678 265.715 159.972 264.774 160.375C263.833 160.779 263.103 161.325 262.582 162.013C262.061 162.685 261.801 163.525 261.801 164.533C261.801 165.995 262.33 167.112 263.388 167.884C264.463 168.64 265.824 169.018 267.47 169.018ZM326.722 148.029L316.895 148.633C316.727 147.793 316.366 147.038 315.812 146.366C315.258 145.677 314.527 145.131 313.62 144.728C312.729 144.308 311.663 144.098 310.42 144.098C308.757 144.098 307.354 144.451 306.212 145.156C305.069 145.845 304.498 146.769 304.498 147.928C304.498 148.852 304.868 149.633 305.607 150.271C306.346 150.91 307.614 151.422 309.412 151.808L316.417 153.219C320.179 153.992 322.985 155.235 324.833 156.949C326.68 158.662 327.604 160.913 327.604 163.702C327.604 166.238 326.857 168.464 325.362 170.379C323.884 172.294 321.851 173.789 319.264 174.864C316.694 175.922 313.729 176.452 310.369 176.452C305.246 176.452 301.164 175.385 298.123 173.251C295.099 171.101 293.327 168.178 292.806 164.483L303.364 163.928C303.683 165.491 304.456 166.683 305.682 167.506C306.909 168.313 308.479 168.716 310.394 168.716C312.276 168.716 313.788 168.355 314.93 167.632C316.089 166.893 316.677 165.944 316.694 164.785C316.677 163.811 316.265 163.013 315.459 162.391C314.653 161.753 313.41 161.266 311.73 160.93L305.027 159.594C301.248 158.838 298.434 157.528 296.586 155.664C294.755 153.799 293.84 151.422 293.84 148.533C293.84 146.046 294.511 143.905 295.855 142.107C297.216 140.31 299.123 138.924 301.575 137.95C304.045 136.975 306.934 136.488 310.243 136.488C315.132 136.488 318.978 137.521 321.784 139.587C324.606 141.654 326.252 144.467 326.722 148.029ZM334.364 175.696V136.992H345.098V175.696H334.364ZM339.756 132.003C338.16 132.003 336.791 131.474 335.649 130.416C334.523 129.34 333.96 128.055 333.96 126.56C333.96 125.082 334.523 123.814 335.649 122.755C336.791 121.68 338.16 121.143 339.756 121.143C341.352 121.143 342.712 121.68 343.838 122.755C344.98 123.814 345.551 125.082 345.551 126.56C345.551 128.055 344.98 129.34 343.838 130.416C342.712 131.474 341.352 132.003 339.756 132.003ZM364.431 124.091V175.696H353.697V124.091H364.431ZM390.668 176.452C386.687 176.452 383.26 175.645 380.387 174.033C377.531 172.403 375.331 170.102 373.785 167.128C372.24 164.138 371.467 160.602 371.467 156.52C371.467 152.539 372.24 149.045 373.785 146.038C375.331 143.031 377.506 140.688 380.312 139.008C383.134 137.328 386.443 136.488 390.239 136.488C392.793 136.488 395.17 136.9 397.37 137.723C399.588 138.529 401.52 139.747 403.166 141.376C404.829 143.006 406.122 145.055 407.046 147.525C407.97 149.977 408.432 152.85 408.432 156.142V159.09H375.751V152.438H398.328C398.328 150.893 397.992 149.524 397.32 148.331C396.648 147.138 395.716 146.206 394.523 145.534C393.347 144.845 391.978 144.501 390.416 144.501C388.786 144.501 387.342 144.879 386.082 145.635C384.839 146.374 383.864 147.374 383.159 148.633C382.453 149.876 382.092 151.262 382.075 152.791V159.116C382.075 161.031 382.428 162.685 383.134 164.08C383.856 165.474 384.872 166.549 386.183 167.305C387.493 168.061 389.047 168.439 390.844 168.439C392.037 168.439 393.129 168.271 394.12 167.935C395.111 167.599 395.959 167.095 396.665 166.423C397.37 165.751 397.908 164.928 398.277 163.954L408.205 164.609C407.701 166.994 406.668 169.077 405.106 170.858C403.561 172.622 401.562 173.999 399.109 174.99C396.673 175.964 393.859 176.452 390.668 176.452ZM415.437 175.696V136.992H426.171V175.696H415.437ZM420.829 132.003C419.233 132.003 417.864 131.474 416.722 130.416C415.597 129.34 415.034 128.055 415.034 126.56C415.034 125.082 415.597 123.814 416.722 122.755C417.864 121.68 419.233 121.143 420.829 121.143C422.425 121.143 423.786 121.68 424.911 122.755C426.054 123.814 426.625 125.082 426.625 126.56C426.625 128.055 426.054 129.34 424.911 130.416C423.786 131.474 422.425 132.003 420.829 132.003ZM434.77 175.696V136.992H445.177V143.745H445.58C446.285 141.343 447.469 139.529 449.133 138.302C450.796 137.059 452.711 136.438 454.878 136.438C455.415 136.438 455.995 136.471 456.616 136.539C457.238 136.606 457.784 136.698 458.254 136.816V146.34C457.75 146.189 457.053 146.055 456.163 145.937C455.272 145.82 454.458 145.761 453.719 145.761C452.139 145.761 450.728 146.105 449.485 146.794C448.259 147.466 447.285 148.407 446.562 149.616C445.857 150.826 445.504 152.22 445.504 153.799V175.696H434.77ZM479.489 176.452C475.575 176.452 472.19 175.62 469.335 173.957C466.496 172.277 464.304 169.942 462.758 166.952C461.213 163.945 460.44 160.459 460.44 156.495C460.44 152.497 461.213 149.003 462.758 146.013C464.304 143.006 466.496 140.671 469.335 139.008C472.19 137.328 475.575 136.488 479.489 136.488C483.403 136.488 486.78 137.328 489.619 139.008C492.475 140.671 494.675 143.006 496.221 146.013C497.766 149.003 498.539 152.497 498.539 156.495C498.539 160.459 497.766 163.945 496.221 166.952C494.675 169.942 492.475 172.277 489.619 173.957C486.78 175.62 483.403 176.452 479.489 176.452ZM479.54 168.136C481.32 168.136 482.807 167.632 484 166.625C485.192 165.6 486.091 164.206 486.696 162.442C487.317 160.678 487.628 158.67 487.628 156.419C487.628 154.168 487.317 152.161 486.696 150.397C486.091 148.633 485.192 147.239 484 146.214C482.807 145.19 481.32 144.677 479.54 144.677C477.742 144.677 476.23 145.19 475.004 146.214C473.795 147.239 472.879 148.633 472.258 150.397C471.653 152.161 471.351 154.168 471.351 156.419C471.351 158.67 471.653 160.678 472.258 162.442C472.879 164.206 473.795 165.6 475.004 166.625C476.23 167.632 477.742 168.136 479.54 168.136Z" fill="white"/>
</svg>
