<svg width="1512" height="100" viewBox="0 0 1512 100" fill="none" xmlns="http://www.w3.org/2000/svg">
<rect width="1512" height="100" fill="#13293D"/>
<path d="M63.3539 30.1866C59.213 26.5913 58.7715 24.2444 62.7862 19.2114L67.8954 22.0498C62.5971 24.8882 62.0991 26.3635 63.3539 30.1866Z" fill="#006494"/>
<path d="M63.9217 26.2128C65.4071 25.9633 66.3603 25.0221 68.0847 23.1852C69.6754 23.7839 70.5897 25.2667 70.1662 26.5913C68.6962 31.1885 67.1158 30.0632 63.9217 26.2128Z" fill="#006494"/>
<path d="M90.9812 55.3539C90.9812 55.3539 90.035 73.7089 90.2243 77.6827C90.4135 81.6565 93.7725 83.903 99.118 84.8734L90.9812 55.3539Z" fill="#006494"/>
<path d="M87.9536 73.8982C83.412 70.8705 83.7905 66.5183 89.2782 54.2185C88.5212 64.8152 88.5212 65.0045 87.9536 73.8982Z" fill="#006494"/>
<path d="M99.4963 56.4892C74.6759 45.5761 66.8392 41.0227 67.3277 36.6203C68.8924 27.9564 76.2214 27.9159 79.0598 29.0513C81.8982 30.1866 86.1741 35.5839 90.035 41.1618L83.412 36.2419L99.4963 56.4892Z" fill="#006494"/>
<path d="M68.6523 21.4821C67.8182 18.9532 68.0235 18.1201 69.4093 17.5084C72.2477 16.2552 75.0861 22.0498 71.1123 22.6175L72.6261 25.0772C75.378 25.2606 76.9944 25.8446 80.006 27.7264C80.5737 24.3203 71.68 15.3379 69.4093 15.0482C65.4169 14.539 63.9063 15.0873 62.5971 17.6974L68.6523 21.4821Z" fill="#006494"/>
<path d="M121.324 44.9775V27.2708H125.068V34.5765H132.668V27.2708H136.403V44.9775H132.668V37.6631H125.068V44.9775H121.324ZM145.42 45.2369C144.077 45.2369 142.916 44.9516 141.936 44.3809C140.962 43.8046 140.21 43.0034 139.679 41.9774C139.149 40.9457 138.884 39.7496 138.884 38.3894C138.884 37.0175 139.149 35.8186 139.679 34.7927C140.21 33.7609 140.962 32.9597 141.936 32.3891C142.916 31.8127 144.077 31.5245 145.42 31.5245C146.763 31.5245 147.922 31.8127 148.896 32.3891C149.876 32.9597 150.631 33.7609 151.161 34.7927C151.691 35.8186 151.957 37.0175 151.957 38.3894C151.957 39.7496 151.691 40.9457 151.161 41.9774C150.631 43.0034 149.876 43.8046 148.896 44.3809C147.922 44.9516 146.763 45.2369 145.42 45.2369ZM145.438 42.3837C146.049 42.3837 146.559 42.2108 146.968 41.865C147.377 41.5134 147.686 41.035 147.893 40.4298C148.106 39.8246 148.213 39.1358 148.213 38.3634C148.213 37.5911 148.106 36.9023 147.893 36.2971C147.686 35.6918 147.377 35.2134 146.968 34.8618C146.559 34.5102 146.049 34.3344 145.438 34.3344C144.821 34.3344 144.302 34.5102 143.881 34.8618C143.466 35.2134 143.152 35.6918 142.939 36.2971C142.731 36.9023 142.628 37.5911 142.628 38.3634C142.628 39.1358 142.731 39.8246 142.939 40.4298C143.152 41.035 143.466 41.5134 143.881 41.865C144.302 42.2108 144.821 42.3837 145.438 42.3837ZM161.415 31.6974V34.4641H153.418V31.6974H161.415ZM155.233 28.5158H158.917V40.8967C158.917 41.2367 158.968 41.5019 159.072 41.6921C159.176 41.8765 159.32 42.0062 159.504 42.0811C159.695 42.1561 159.914 42.1935 160.162 42.1935C160.334 42.1935 160.507 42.1791 160.68 42.1503C160.853 42.1157 160.986 42.0898 161.078 42.0725L161.657 44.8132C161.473 44.8709 161.213 44.9372 160.879 45.0121C160.545 45.0928 160.138 45.1418 159.66 45.1591C158.772 45.1937 157.994 45.0755 157.326 44.8046C156.663 44.5337 156.147 44.1129 155.778 43.5423C155.409 42.9717 155.228 42.2512 155.233 41.3808V28.5158ZM169.724 45.2369C168.358 45.2369 167.182 44.9602 166.196 44.4069C165.216 43.8478 164.461 43.0581 163.931 42.0379C163.401 41.0119 163.136 39.7986 163.136 38.398C163.136 37.032 163.401 35.8331 163.931 34.8013C164.461 33.7696 165.208 32.9655 166.17 32.3891C167.139 31.8127 168.274 31.5245 169.577 31.5245C170.453 31.5245 171.269 31.6657 172.024 31.9482C172.785 32.2248 173.447 32.6427 174.012 33.2018C174.583 33.7609 175.027 34.4641 175.344 35.3114C175.661 36.153 175.819 37.1386 175.819 38.2683V39.2799H164.606V36.9974H172.352C172.352 36.4671 172.237 35.9973 172.006 35.5881C171.776 35.1789 171.456 34.859 171.047 34.6284C170.643 34.3921 170.173 34.2739 169.637 34.2739C169.078 34.2739 168.583 34.4036 168.15 34.663C167.724 34.9166 167.389 35.2595 167.147 35.6918C166.905 36.1184 166.781 36.5939 166.776 37.1184V39.2885C166.776 39.9456 166.897 40.5134 167.139 40.9918C167.387 41.4702 167.735 41.8391 168.185 42.0984C168.634 42.3578 169.168 42.4875 169.784 42.4875C170.194 42.4875 170.568 42.4299 170.908 42.3146C171.248 42.1993 171.539 42.0264 171.782 41.7958C172.024 41.5653 172.208 41.2828 172.335 40.9485L175.741 41.1733C175.568 41.9918 175.214 42.7065 174.678 43.3175C174.148 43.9227 173.462 44.3954 172.62 44.7354C171.784 45.0697 170.819 45.2369 169.724 45.2369ZM181.906 27.2708V44.9775H178.223V27.2708H181.906ZM121.324 73.9775V56.2708H128.414C129.717 56.2708 130.803 56.4639 131.673 56.85C132.544 57.2362 133.198 57.7723 133.636 58.4582C134.074 59.1383 134.293 59.9222 134.293 60.8098C134.293 61.5015 134.155 62.1096 133.878 62.6341C133.601 63.1529 133.221 63.5794 132.737 63.9137C132.258 64.2423 131.711 64.4757 131.094 64.614V64.7869C131.768 64.8158 132.4 65.006 132.988 65.3576C133.581 65.7092 134.063 66.202 134.431 66.836C134.8 67.4643 134.985 68.2136 134.985 69.0839C134.985 70.0235 134.751 70.8621 134.284 71.5999C133.823 72.3319 133.14 72.9112 132.235 73.3377C131.33 73.7642 130.215 73.9775 128.889 73.9775H121.324ZM125.068 70.9169H128.12C129.163 70.9169 129.924 70.718 130.402 70.3203C130.881 69.9168 131.12 69.3808 131.12 68.7122C131.12 68.2222 131.002 67.7899 130.766 67.4153C130.529 67.0406 130.192 66.7467 129.754 66.5334C129.322 66.3201 128.806 66.2135 128.206 66.2135H125.068V70.9169ZM125.068 63.6803H127.843C128.356 63.6803 128.812 63.5909 129.209 63.4123C129.613 63.2278 129.93 62.9684 130.16 62.6341C130.397 62.2998 130.515 61.8992 130.515 61.4323C130.515 60.7926 130.287 60.2767 129.832 59.8847C129.382 59.4928 128.742 59.2968 127.912 59.2968H125.068V63.6803ZM137.352 73.9775V60.6974H140.922V63.0145H141.061C141.303 62.1903 141.709 61.5678 142.28 61.147C142.85 60.7205 143.507 60.5072 144.251 60.5072C144.435 60.5072 144.634 60.5188 144.848 60.5418C145.061 60.5649 145.248 60.5966 145.41 60.6369V63.9051C145.237 63.8532 144.997 63.8071 144.692 63.7667C144.386 63.7264 144.107 63.7062 143.853 63.7062C143.311 63.7062 142.827 63.8244 142.401 64.0607C141.98 64.2912 141.646 64.614 141.398 65.029C141.156 65.444 141.035 65.9224 141.035 66.4642V73.9775H137.352ZM150.72 74.2282C149.873 74.2282 149.118 74.0813 148.455 73.7873C147.792 73.4876 147.268 73.0466 146.881 72.4645C146.501 71.8766 146.311 71.1445 146.311 70.2684C146.311 69.5306 146.446 68.911 146.717 68.4096C146.988 67.9081 147.357 67.5046 147.824 67.1991C148.291 66.8937 148.821 66.6631 149.415 66.5075C150.014 66.3518 150.642 66.2423 151.3 66.1789C152.072 66.0982 152.694 66.0233 153.167 65.9541C153.64 65.8792 153.983 65.7697 154.196 65.6256C154.409 65.4815 154.516 65.2682 154.516 64.9858V64.9339C154.516 64.3864 154.343 63.9627 153.997 63.663C153.657 63.3633 153.173 63.2134 152.545 63.2134C151.882 63.2134 151.354 63.3604 150.962 63.6543C150.57 63.9425 150.311 64.3057 150.184 64.7437L146.778 64.467C146.951 63.6601 147.291 62.9627 147.798 62.3747C148.305 61.7811 148.959 61.3257 149.761 61.0087C150.567 60.6859 151.501 60.5245 152.562 60.5245C153.3 60.5245 154.006 60.611 154.68 60.7839C155.36 60.9568 155.963 61.2248 156.487 61.588C157.017 61.9511 157.435 62.418 157.741 62.9886C158.046 63.5535 158.199 64.2307 158.199 65.0204V73.9775H154.706V72.1359H154.602C154.389 72.5509 154.104 72.9169 153.746 73.234C153.389 73.5452 152.96 73.7902 152.458 73.9689C151.957 74.1418 151.377 74.2282 150.72 74.2282ZM151.775 71.6864C152.317 71.6864 152.795 71.5797 153.21 71.3665C153.625 71.1474 153.951 70.8535 154.187 70.4846C154.424 70.1157 154.542 69.6978 154.542 69.2309V67.8216C154.426 67.8966 154.268 67.9657 154.066 68.0291C153.87 68.0868 153.648 68.1415 153.4 68.1934C153.153 68.2395 152.905 68.2828 152.657 68.3231C152.409 68.3577 152.184 68.3894 151.983 68.4182C151.55 68.4816 151.173 68.5825 150.85 68.7208C150.527 68.8592 150.276 69.0465 150.098 69.2828C149.919 69.5134 149.83 69.8016 149.83 70.1474C149.83 70.6488 150.011 71.0321 150.374 71.2973C150.743 71.5567 151.21 71.6864 151.775 71.6864ZM172.106 64.4843L168.734 64.6918C168.676 64.4036 168.552 64.1443 168.362 63.9137C168.172 63.6774 167.921 63.4901 167.61 63.3517C167.304 63.2076 166.938 63.1356 166.512 63.1356C165.941 63.1356 165.46 63.2566 165.068 63.4987C164.676 63.735 164.48 64.052 164.48 64.4498C164.48 64.7668 164.607 65.0348 164.861 65.2538C165.114 65.4729 165.549 65.6487 166.166 65.7812L168.57 66.2654C169.861 66.5305 170.823 66.9571 171.457 67.545C172.091 68.1329 172.408 68.9053 172.408 69.8621C172.408 70.7324 172.152 71.4961 171.639 72.1532C171.132 72.8103 170.434 73.3233 169.547 73.6922C168.665 74.0553 167.647 74.2369 166.495 74.2369C164.737 74.2369 163.336 73.8709 162.293 73.1389C161.255 72.4011 160.647 71.3982 160.468 70.1301L164.091 69.9399C164.201 70.4759 164.466 70.8852 164.886 71.1676C165.307 71.4443 165.846 71.5826 166.503 71.5826C167.149 71.5826 167.668 71.4587 168.06 71.2108C168.457 70.9572 168.659 70.6316 168.665 70.2338C168.659 69.8995 168.518 69.6258 168.241 69.4125C167.964 69.1935 167.538 69.0263 166.962 68.911L164.662 68.4528C163.365 68.1934 162.399 67.7438 161.765 67.104C161.137 66.4642 160.823 65.6487 160.823 64.6573C160.823 63.8042 161.053 63.0693 161.515 62.4526C161.981 61.8358 162.636 61.3603 163.477 61.026C164.325 60.6917 165.316 60.5245 166.451 60.5245C168.129 60.5245 169.449 60.879 170.411 61.588C171.38 62.2969 171.944 63.2624 172.106 64.4843ZM174.728 73.9775V60.6974H178.411V73.9775H174.728ZM176.578 58.9856C176.03 58.9856 175.561 58.804 175.169 58.4409C174.782 58.072 174.589 57.631 174.589 57.1181C174.589 56.6108 174.782 56.1757 175.169 55.8125C175.561 55.4436 176.03 55.2592 176.578 55.2592C177.125 55.2592 177.592 55.4436 177.979 55.8125C178.37 56.1757 178.566 56.6108 178.566 57.1181C178.566 57.631 178.37 58.072 177.979 58.4409C177.592 58.804 177.125 58.9856 176.578 58.9856ZM185.044 56.2708V73.9775H181.361V56.2708H185.044ZM194.047 74.2369C192.681 74.2369 191.505 73.9602 190.519 73.4069C189.539 72.8478 188.784 72.0581 188.254 71.0379C187.724 70.0119 187.459 68.7986 187.459 67.398C187.459 66.032 187.724 64.8331 188.254 63.8013C188.784 62.7696 189.531 61.9655 190.493 61.3891C191.462 60.8127 192.597 60.5245 193.9 60.5245C194.776 60.5245 195.592 60.6657 196.347 60.9482C197.108 61.2248 197.77 61.6427 198.335 62.2018C198.906 62.7609 199.35 63.4641 199.667 64.3114C199.984 65.153 200.142 66.1386 200.142 67.2683V68.2799H188.929V65.9974H196.675C196.675 65.4671 196.56 64.9973 196.329 64.5881C196.099 64.1789 195.779 63.859 195.37 63.6284C194.966 63.3921 194.496 63.2739 193.96 63.2739C193.401 63.2739 192.906 63.4036 192.473 63.663C192.047 63.9166 191.712 64.2595 191.47 64.6918C191.228 65.1184 191.104 65.5939 191.099 66.1184V68.2885C191.099 68.9456 191.22 69.5134 191.462 69.9918C191.71 70.4702 192.058 70.8391 192.508 71.0984C192.957 71.3578 193.491 71.4875 194.107 71.4875C194.517 71.4875 194.891 71.4299 195.231 71.3146C195.571 71.1993 195.862 71.0264 196.105 70.7958C196.347 70.5653 196.531 70.2828 196.658 69.9485L200.064 70.1733C199.891 70.9918 199.537 71.7065 199.001 72.3175C198.471 72.9227 197.785 73.3954 196.943 73.7354C196.107 74.0697 195.142 74.2369 194.047 74.2369ZM202.546 73.9775V60.6974H206.229V73.9775H202.546ZM204.396 58.9856C203.848 58.9856 203.379 58.804 202.987 58.4409C202.601 58.072 202.407 57.631 202.407 57.1181C202.407 56.6108 202.601 56.1757 202.987 55.8125C203.379 55.4436 203.848 55.2592 204.396 55.2592C204.944 55.2592 205.41 55.4436 205.797 55.8125C206.189 56.1757 206.385 56.6108 206.385 57.1181C206.385 57.631 206.189 58.072 205.797 58.4409C205.41 58.804 204.944 58.9856 204.396 58.9856ZM209.179 73.9775V60.6974H212.75V63.0145H212.888C213.13 62.1903 213.537 61.5678 214.107 61.147C214.678 60.7205 215.335 60.5072 216.079 60.5072C216.263 60.5072 216.462 60.5188 216.675 60.5418C216.889 60.5649 217.076 60.5966 217.237 60.6369V63.9051C217.064 63.8532 216.825 63.8071 216.52 63.7667C216.214 63.7264 215.935 63.7062 215.681 63.7062C215.139 63.7062 214.655 63.8244 214.228 64.0607C213.808 64.2912 213.473 64.614 213.226 65.029C212.983 65.444 212.862 65.9224 212.862 66.4642V73.9775H209.179ZM224.524 74.2369C223.181 74.2369 222.019 73.9516 221.039 73.3809C220.065 72.8046 219.313 72.0034 218.783 70.9774C218.252 69.9457 217.987 68.7496 217.987 67.3894C217.987 66.0175 218.252 64.8186 218.783 63.7927C219.313 62.7609 220.065 61.9597 221.039 61.3891C222.019 60.8127 223.181 60.5245 224.524 60.5245C225.867 60.5245 227.025 60.8127 227.999 61.3891C228.979 61.9597 229.734 62.7609 230.264 63.7927C230.795 64.8186 231.06 66.0175 231.06 67.3894C231.06 68.7496 230.795 69.9457 230.264 70.9774C229.734 72.0034 228.979 72.8046 227.999 73.3809C227.025 73.9516 225.867 74.2369 224.524 74.2369ZM224.541 71.3837C225.152 71.3837 225.662 71.2108 226.071 70.865C226.48 70.5134 226.789 70.035 226.996 69.4298C227.21 68.8246 227.316 68.1358 227.316 67.3634C227.316 66.5911 227.21 65.9023 226.996 65.2971C226.789 64.6918 226.48 64.2134 226.071 63.8618C225.662 63.5102 225.152 63.3344 224.541 63.3344C223.924 63.3344 223.405 63.5102 222.985 63.8618C222.57 64.2134 222.255 64.6918 222.042 65.2971C221.835 65.9023 221.731 66.5911 221.731 67.3634C221.731 68.1358 221.835 68.8246 222.042 69.4298C222.255 70.035 222.57 70.5134 222.985 70.865C223.405 71.2108 223.924 71.3837 224.541 71.3837Z" fill="white"/>
<g clip-path="url(#clip0_37_172)">
<path d="M901.441 43.3309V57.8763H899.246V43.3309H901.441ZM906.59 51.399V57.8763H904.467V46.9672H906.505V48.7428H906.64C906.891 48.1651 907.284 47.7011 907.819 47.3507C908.359 47.0004 909.038 46.8252 909.857 46.8252C910.601 46.8252 911.252 46.9814 911.81 47.2939C912.369 47.6017 912.802 48.061 913.11 48.6718C913.418 49.2826 913.572 50.0378 913.572 50.9374V57.8763H911.448V51.1931C911.448 50.4024 911.242 49.7845 910.83 49.3394C910.418 48.8896 909.853 48.6647 909.133 48.6647C908.64 48.6647 908.202 48.7712 907.819 48.9843C907.44 49.1973 907.139 49.5098 906.917 49.9218C906.699 50.329 906.59 50.8214 906.59 51.399ZM916.42 57.8763V46.9672H918.543V57.8763H916.42ZM916.619 45.5113L918.281 42.2371H920.518L918.316 45.5113H916.619ZM925.995 58.0965C924.94 58.0965 924.03 57.8574 923.268 57.3792C922.511 56.8962 921.928 56.231 921.521 55.3834C921.114 54.5359 920.91 53.5652 920.91 52.4715C920.91 51.3635 921.118 50.3858 921.535 49.5382C921.952 48.686 922.539 48.0207 923.297 47.5425C924.054 47.0643 924.947 46.8252 925.974 46.8252C926.803 46.8252 927.541 46.9791 928.19 47.2868C928.839 47.5899 929.362 48.016 929.76 48.5652C930.162 49.1145 930.401 49.756 930.477 50.4899H928.41C928.297 49.9786 928.036 49.5382 927.629 49.1689C927.226 48.7996 926.687 48.6149 926.01 48.6149C925.418 48.6149 924.899 48.7712 924.454 49.0837C924.014 49.3915 923.671 49.8318 923.424 50.4047C923.178 50.9729 923.055 51.6453 923.055 52.4218C923.055 53.2172 923.176 53.9038 923.417 54.4814C923.659 55.0591 924 55.5065 924.44 55.8238C924.885 56.141 925.408 56.2996 926.01 56.2996C926.412 56.2996 926.777 56.2262 927.103 56.0794C927.435 55.9279 927.712 55.7125 927.934 55.4331C928.162 55.1538 928.32 54.8176 928.41 54.4246H930.477C930.401 55.1301 930.172 55.7598 929.788 56.3138C929.404 56.8678 928.891 57.3034 928.247 57.6206C927.608 57.9379 926.857 58.0965 925.995 58.0965ZM932.748 57.8763V46.9672H934.871V57.8763H932.748ZM933.82 45.284C933.451 45.284 933.134 45.1609 932.869 44.9147C932.608 44.6637 932.478 44.3654 932.478 44.0198C932.478 43.6694 932.608 43.3711 932.869 43.1249C933.134 42.8739 933.451 42.7485 933.82 42.7485C934.19 42.7485 934.504 42.8739 934.765 43.1249C935.03 43.3711 935.163 43.6694 935.163 44.0198C935.163 44.3654 935.03 44.6637 934.765 44.9147C934.504 45.1609 934.19 45.284 933.82 45.284ZM942.324 58.0965C941.301 58.0965 940.408 57.8621 939.646 57.3934C938.884 56.9246 938.292 56.2688 937.87 55.426C937.449 54.5832 937.238 53.5984 937.238 52.4715C937.238 51.3399 937.449 50.3503 937.87 49.5027C938.292 48.6552 938.884 47.9971 939.646 47.5283C940.408 47.0596 941.301 46.8252 942.324 46.8252C943.346 46.8252 944.239 47.0596 945.001 47.5283C945.763 47.9971 946.355 48.6552 946.777 49.5027C947.198 50.3503 947.409 51.3399 947.409 52.4715C947.409 53.5984 947.198 54.5832 946.777 55.426C946.355 56.2688 945.763 56.9246 945.001 57.3934C944.239 57.8621 943.346 58.0965 942.324 58.0965ZM942.331 56.3138C942.993 56.3138 943.543 56.1386 943.978 55.7882C944.414 55.4379 944.736 54.9715 944.944 54.3891C945.157 53.8067 945.264 53.1651 945.264 52.4644C945.264 51.7684 945.157 51.1292 944.944 50.5468C944.736 49.9596 944.414 49.4885 943.978 49.1334C943.543 48.7783 942.993 48.6007 942.331 48.6007C941.663 48.6007 941.109 48.7783 940.669 49.1334C940.233 49.4885 939.909 49.9596 939.696 50.5468C939.487 51.1292 939.383 51.7684 939.383 52.4644C939.383 53.1651 939.487 53.8067 939.696 54.3891C939.909 54.9715 940.233 55.4379 940.669 55.7882C941.109 56.1386 941.663 56.3138 942.331 56.3138Z" fill="white"/>
</g>
<g clip-path="url(#clip1_37_172)">
<path d="M986.411 53.1604H988.57L990.09 55.1419L990.807 56.0226L993.229 59.1831H990.985L989.365 57.0738L988.811 56.3067L986.411 53.1604ZM993.698 50.6036C993.698 52.1566 993.414 53.4918 992.846 54.6093C992.277 55.722 991.498 56.579 990.509 57.1803C989.524 57.7769 988.404 58.0752 987.15 58.0752C985.89 58.0752 984.766 57.7769 983.776 57.1803C982.791 56.579 982.015 55.7196 981.446 54.6022C980.878 53.4847 980.594 52.1519 980.594 50.6036C980.594 49.0506 980.878 47.7177 981.446 46.605C982.015 45.4876 982.791 44.6306 983.776 44.034C984.766 43.4327 985.89 43.132 987.15 43.132C988.404 43.132 989.524 43.4327 990.509 44.034C991.498 44.6306 992.277 45.4876 992.846 46.605C993.414 47.7177 993.698 49.0506 993.698 50.6036ZM991.525 50.6036C991.525 49.4199 991.333 48.4232 990.949 47.6135C990.57 46.7991 990.05 46.1836 989.387 45.7669C988.729 45.3455 987.983 45.1348 987.15 45.1348C986.311 45.1348 985.563 45.3455 984.905 45.7669C984.247 46.1836 983.726 46.7991 983.343 47.6135C982.964 48.4232 982.775 49.4199 982.775 50.6036C982.775 51.7873 982.964 52.7863 983.343 53.6007C983.726 54.4104 984.247 55.0259 984.905 55.4473C985.563 55.864 986.311 56.0723 987.15 56.0723C987.983 56.0723 988.729 55.864 989.387 55.4473C990.05 55.0259 990.57 54.4104 990.949 53.6007C991.333 52.7863 991.525 51.7873 991.525 50.6036ZM1003.17 53.3522V46.9672H1005.3V57.8763H1003.22V55.9871H1003.1C1002.85 56.5695 1002.45 57.0548 1001.9 57.4431C1001.35 57.8266 1000.66 58.0184 999.843 58.0184C999.142 58.0184 998.522 57.8645 997.982 57.5567C997.447 57.2442 997.026 56.7826 996.718 56.1718C996.415 55.561 996.263 54.8058 996.263 53.9061V46.9672H998.387V53.6505C998.387 54.3938 998.593 54.9857 999.005 55.426C999.417 55.8664 999.952 56.0865 1000.61 56.0865C1001.01 56.0865 1001.4 55.9871 1001.8 55.7882C1002.19 55.5894 1002.52 55.2887 1002.78 54.8863C1003.05 54.4838 1003.18 53.9724 1003.17 53.3522ZM1011.33 58.1178C1010.64 58.1178 1010.02 57.9899 1009.46 57.7343C1008.9 57.4739 1008.46 57.0974 1008.13 56.605C1007.81 56.1126 1007.65 55.5089 1007.65 54.7939C1007.65 54.1784 1007.77 53.6718 1008 53.274C1008.24 52.8763 1008.56 52.5614 1008.96 52.3294C1009.36 52.0974 1009.81 51.9222 1010.31 51.8039C1010.81 51.6855 1011.31 51.5955 1011.83 51.534C1012.48 51.4582 1013.01 51.3967 1013.42 51.3493C1013.83 51.2972 1014.12 51.2144 1014.31 51.1007C1014.49 50.9871 1014.59 50.8024 1014.59 50.5468V50.4971C1014.59 49.8768 1014.41 49.3962 1014.06 49.0553C1013.71 48.7144 1013.2 48.5439 1012.51 48.5439C1011.8 48.5439 1011.23 48.7025 1010.82 49.0198C1010.41 49.3323 1010.13 49.6803 1009.98 50.0638L1007.98 49.6093C1008.22 48.9464 1008.56 48.4113 1009.02 48.0042C1009.48 47.5922 1010 47.2939 1010.6 47.1093C1011.2 46.9199 1011.83 46.8252 1012.48 46.8252C1012.92 46.8252 1013.38 46.8773 1013.87 46.9814C1014.36 47.0809 1014.82 47.2655 1015.25 47.5354C1015.68 47.8053 1016.03 48.1912 1016.3 48.6931C1016.58 49.1902 1016.72 49.8365 1016.72 50.632V57.8763H1014.64V56.3848H1014.56C1014.42 56.6595 1014.21 56.9293 1013.94 57.1945C1013.66 57.4596 1013.31 57.6798 1012.88 57.855C1012.45 58.0302 1011.93 58.1178 1011.33 58.1178ZM1011.79 56.4132C1012.38 56.4132 1012.88 56.2972 1013.3 56.0652C1013.72 55.8332 1014.04 55.5302 1014.26 55.1561C1014.48 54.7774 1014.59 54.3725 1014.59 53.9417V52.5354C1014.52 52.6112 1014.37 52.6822 1014.15 52.7485C1013.94 52.81 1013.7 52.8645 1013.42 52.9118C1013.15 52.9544 1012.88 52.9947 1012.62 53.0326C1012.36 53.0657 1012.14 53.0941 1011.96 53.1178C1011.55 53.1699 1011.18 53.2575 1010.84 53.3806C1010.5 53.5037 1010.23 53.6812 1010.03 53.9132C1009.83 54.1405 1009.73 54.4435 1009.73 54.8223C1009.73 55.3479 1009.92 55.7456 1010.31 56.0155C1010.7 56.2807 1011.19 56.4132 1011.79 56.4132ZM1019.54 57.8763V46.9672H1021.6V48.7002H1021.71C1021.91 48.1131 1022.26 47.6514 1022.76 47.3152C1023.27 46.9743 1023.84 46.8039 1024.48 46.8039C1024.61 46.8039 1024.77 46.8086 1024.95 46.8181C1025.13 46.8275 1025.28 46.8394 1025.38 46.8536V48.8848C1025.3 48.8612 1025.15 48.8351 1024.93 48.8067C1024.71 48.7736 1024.49 48.757 1024.27 48.757C1023.77 48.757 1023.33 48.8635 1022.93 49.0766C1022.54 49.2849 1022.24 49.5761 1022.01 49.9502C1021.78 50.3195 1021.67 50.7409 1021.67 51.2144V57.8763H1019.54ZM1032.96 46.9672V48.6718H1027V46.9672H1032.96ZM1028.6 44.3536H1030.72V54.6732C1030.72 55.0851 1030.78 55.3953 1030.9 55.6036C1031.03 55.8072 1031.19 55.9469 1031.38 56.0226C1031.58 56.0936 1031.79 56.1292 1032.03 56.1292C1032.2 56.1292 1032.35 56.1173 1032.47 56.0936C1032.6 56.07 1032.7 56.051 1032.77 56.0368L1033.16 57.7911C1033.03 57.8384 1032.86 57.8858 1032.63 57.9331C1032.4 57.9852 1032.12 58.0136 1031.78 58.0184C1031.22 58.0278 1030.7 57.9284 1030.22 57.7201C1029.73 57.5117 1029.34 57.1898 1029.04 56.7542C1028.75 56.3185 1028.6 55.7717 1028.6 55.1135V44.3536ZM1039.78 58.0965C1038.76 58.0965 1037.87 57.8621 1037.11 57.3934C1036.34 56.9246 1035.75 56.2688 1035.33 55.426C1034.91 54.5832 1034.7 53.5984 1034.7 52.4715C1034.7 51.3399 1034.91 50.3503 1035.33 49.5027C1035.75 48.6552 1036.34 47.9971 1037.11 47.5283C1037.87 47.0596 1038.76 46.8252 1039.78 46.8252C1040.81 46.8252 1041.7 47.0596 1042.46 47.5283C1043.22 47.9971 1043.82 48.6552 1044.24 49.5027C1044.66 50.3503 1044.87 51.3399 1044.87 52.4715C1044.87 53.5984 1044.66 54.5832 1044.24 55.426C1043.82 56.2688 1043.22 56.9246 1042.46 57.3934C1041.7 57.8621 1040.81 58.0965 1039.78 58.0965ZM1039.79 56.3138C1040.45 56.3138 1041 56.1386 1041.44 55.7882C1041.87 55.4379 1042.2 54.9715 1042.41 54.3891C1042.62 53.8067 1042.72 53.1651 1042.72 52.4644C1042.72 51.7684 1042.62 51.1292 1042.41 50.5468C1042.2 49.9596 1041.87 49.4885 1041.44 49.1334C1041 48.7783 1040.45 48.6007 1039.79 48.6007C1039.12 48.6007 1038.57 48.7783 1038.13 49.1334C1037.69 49.4885 1037.37 49.9596 1037.16 50.5468C1036.95 51.1292 1036.84 51.7684 1036.84 52.4644C1036.84 53.1651 1036.95 53.8067 1037.16 54.3891C1037.37 54.9715 1037.69 55.4379 1038.13 55.7882C1038.57 56.1386 1039.12 56.3138 1039.79 56.3138ZM1055.41 49.6306L1053.49 49.9715C1053.41 49.7253 1053.28 49.4909 1053.11 49.2684C1052.94 49.0458 1052.7 48.8635 1052.41 48.7215C1052.12 48.5794 1051.75 48.5084 1051.31 48.5084C1050.71 48.5084 1050.21 48.6434 1049.8 48.9132C1049.4 49.1784 1049.2 49.5217 1049.2 49.9431C1049.2 50.3077 1049.34 50.6012 1049.61 50.8238C1049.88 51.0463 1050.31 51.2286 1050.91 51.3706L1052.64 51.7684C1053.65 52.0004 1054.4 52.3578 1054.89 52.8408C1055.38 53.3238 1055.63 53.9511 1055.63 54.7229C1055.63 55.3763 1055.44 55.9587 1055.06 56.4701C1054.69 56.9767 1054.16 57.3744 1053.49 57.6632C1052.82 57.9521 1052.05 58.0965 1051.17 58.0965C1049.95 58.0965 1048.95 57.8361 1048.18 57.3152C1047.41 56.7897 1046.93 56.0439 1046.76 55.078L1048.81 54.7655C1048.94 55.3006 1049.2 55.7054 1049.6 55.98C1050 56.2499 1050.51 56.3848 1051.15 56.3848C1051.85 56.3848 1052.41 56.2404 1052.82 55.9516C1053.24 55.658 1053.45 55.3006 1053.45 54.8792C1053.45 54.5382 1053.32 54.2518 1053.06 54.0198C1052.81 53.7878 1052.43 53.6126 1051.91 53.4942L1050.06 53.0894C1049.04 52.8574 1048.29 52.4881 1047.8 51.9814C1047.32 51.4748 1047.08 50.8332 1047.08 50.0567C1047.08 49.4128 1047.26 48.8493 1047.62 48.3664C1047.98 47.8834 1048.47 47.507 1049.11 47.2371C1049.74 46.9625 1050.47 46.8252 1051.29 46.8252C1052.47 46.8252 1053.4 47.0809 1054.07 47.5922C1054.75 48.0988 1055.2 48.7783 1055.41 49.6306Z" fill="white"/>
</g>
<path d="M1103.6 56.8763V42.3309H1112.72V44.2201H1105.79V48.6519H1112.24V50.534H1105.79V54.9871H1112.8V56.8763H1103.6ZM1117.15 45.9672L1119.56 50.2144L1121.99 45.9672H1124.31L1120.91 51.4218L1124.34 56.8763H1122.02L1119.56 52.7996L1117.11 56.8763H1114.78L1118.18 51.4218L1114.82 45.9672H1117.15ZM1126.49 60.9672V45.9672H1128.57V47.7357H1128.75C1128.87 47.5084 1129.05 47.2456 1129.28 46.9473C1129.51 46.649 1129.83 46.3886 1130.24 46.1661C1130.66 45.9388 1131.2 45.8252 1131.88 45.8252C1132.76 45.8252 1133.54 46.0477 1134.24 46.4928C1134.93 46.9379 1135.47 47.5794 1135.86 48.4175C1136.26 49.2556 1136.46 50.2641 1136.46 51.4431C1136.46 52.6221 1136.26 53.6329 1135.87 54.4757C1135.48 55.3138 1134.94 55.9601 1134.25 56.4147C1133.56 56.8645 1132.78 57.0894 1131.9 57.0894C1131.24 57.0894 1130.69 56.9781 1130.27 56.7556C1129.86 56.533 1129.53 56.2726 1129.29 55.9743C1129.06 55.676 1128.87 55.4109 1128.75 55.1789H1128.62V60.9672H1126.49ZM1128.57 51.4218C1128.57 52.1888 1128.69 52.8612 1128.91 53.4388C1129.13 54.0165 1129.45 54.4686 1129.87 54.7953C1130.3 55.1173 1130.81 55.2783 1131.42 55.2783C1132.06 55.2783 1132.59 55.1102 1133.01 54.774C1133.44 54.4331 1133.76 53.9715 1133.98 53.3891C1134.2 52.8067 1134.31 52.1509 1134.31 51.4218C1134.31 50.7021 1134.2 50.0558 1133.99 49.4828C1133.77 48.9099 1133.45 48.4578 1133.02 48.1263C1132.59 47.7949 1132.06 47.6292 1131.42 47.6292C1130.81 47.6292 1130.29 47.7878 1129.86 48.105C1129.44 48.4222 1129.12 48.8649 1128.9 49.4331C1128.68 50.0013 1128.57 50.6642 1128.57 51.4218ZM1143.54 57.0965C1142.46 57.0965 1141.54 56.8668 1140.76 56.4076C1139.99 55.9435 1139.39 55.2925 1138.97 54.4544C1138.56 53.6116 1138.35 52.6244 1138.35 51.4928C1138.35 50.3754 1138.56 49.3905 1138.97 48.5382C1139.39 47.686 1139.98 47.0207 1140.73 46.5425C1141.49 46.0643 1142.38 45.8252 1143.39 45.8252C1144.01 45.8252 1144.6 45.927 1145.18 46.1306C1145.76 46.3342 1146.28 46.6538 1146.74 47.0894C1147.19 47.525 1147.56 48.0908 1147.82 48.7868C1148.09 49.4781 1148.22 50.3185 1148.22 51.3081V52.061H1139.55V50.4701H1146.14C1146.14 49.9114 1146.03 49.4166 1145.8 48.9857C1145.57 48.5501 1145.25 48.2068 1144.84 47.9559C1144.43 47.7049 1143.95 47.5794 1143.4 47.5794C1142.81 47.5794 1142.29 47.7262 1141.84 48.0198C1141.4 48.3086 1141.06 48.6874 1140.82 49.1561C1140.58 49.6202 1140.46 50.1244 1140.46 50.6689V51.9118C1140.46 52.641 1140.59 53.2613 1140.85 53.7726C1141.11 54.284 1141.47 54.6746 1141.93 54.9445C1142.4 55.2096 1142.94 55.3422 1143.56 55.3422C1143.96 55.3422 1144.33 55.2854 1144.66 55.1718C1144.99 55.0534 1145.28 54.8782 1145.52 54.6462C1145.76 54.4142 1145.95 54.1277 1146.07 53.7868L1148.08 54.149C1147.92 54.7409 1147.64 55.2594 1147.22 55.7044C1146.81 56.1448 1146.29 56.4881 1145.66 56.7343C1145.04 56.9757 1144.33 57.0965 1143.54 57.0965ZM1150.58 56.8763V45.9672H1152.63V47.7002H1152.74C1152.94 47.1131 1153.29 46.6514 1153.79 46.3152C1154.3 45.9743 1154.87 45.8039 1155.51 45.8039C1155.64 45.8039 1155.8 45.8086 1155.98 45.8181C1156.17 45.8275 1156.31 45.8394 1156.41 45.8536V47.8848C1156.33 47.8612 1156.18 47.8351 1155.96 47.8067C1155.74 47.7736 1155.52 47.757 1155.31 47.757C1154.8 47.757 1154.36 47.8635 1153.96 48.0766C1153.58 48.2849 1153.27 48.5761 1153.04 48.9502C1152.81 49.3195 1152.7 49.7409 1152.7 50.2144V56.8763H1150.58ZM1158.25 56.8763V45.9672H1160.38V56.8763H1158.25ZM1159.32 44.284C1158.95 44.284 1158.64 44.1609 1158.37 43.9147C1158.11 43.6637 1157.98 43.3654 1157.98 43.0198C1157.98 42.6694 1158.11 42.3711 1158.37 42.1249C1158.64 41.8739 1158.95 41.7485 1159.32 41.7485C1159.69 41.7485 1160.01 41.8739 1160.27 42.1249C1160.53 42.3711 1160.67 42.6694 1160.67 43.0198C1160.67 43.3654 1160.53 43.6637 1160.27 43.9147C1160.01 44.1609 1159.69 44.284 1159.32 44.284ZM1167.93 57.0965C1166.86 57.0965 1165.93 56.8668 1165.16 56.4076C1164.39 55.9435 1163.79 55.2925 1163.37 54.4544C1162.95 53.6116 1162.74 52.6244 1162.74 51.4928C1162.74 50.3754 1162.95 49.3905 1163.37 48.5382C1163.79 47.686 1164.38 47.0207 1165.13 46.5425C1165.89 46.0643 1166.77 45.8252 1167.78 45.8252C1168.4 45.8252 1169 45.927 1169.57 46.1306C1170.15 46.3342 1170.67 46.6538 1171.13 47.0894C1171.59 47.525 1171.95 48.0908 1172.22 48.7868C1172.48 49.4781 1172.61 50.3185 1172.61 51.3081V52.061H1163.94V50.4701H1170.53C1170.53 49.9114 1170.42 49.4166 1170.19 48.9857C1169.97 48.5501 1169.65 48.2068 1169.23 47.9559C1168.83 47.7049 1168.35 47.5794 1167.8 47.5794C1167.2 47.5794 1166.68 47.7262 1166.24 48.0198C1165.8 48.3086 1165.46 48.6874 1165.21 49.1561C1164.98 49.6202 1164.86 50.1244 1164.86 50.6689V51.9118C1164.86 52.641 1164.99 53.2613 1165.24 53.7726C1165.5 54.284 1165.86 54.6746 1166.33 54.9445C1166.79 55.2096 1167.33 55.3422 1167.96 55.3422C1168.36 55.3422 1168.72 55.2854 1169.06 55.1718C1169.39 55.0534 1169.67 54.8782 1169.92 54.6462C1170.16 54.4142 1170.34 54.1277 1170.47 53.7868L1172.48 54.149C1172.32 54.7409 1172.03 55.2594 1171.61 55.7044C1171.2 56.1448 1170.68 56.4881 1170.06 56.7343C1169.44 56.9757 1168.73 57.0965 1167.93 57.0965ZM1169.16 44.6604L1167.71 42.757L1166.24 44.6604H1164.33V44.5539L1166.82 41.5425H1168.59L1171.09 44.5539V44.6604H1169.16ZM1177.09 50.399V56.8763H1174.97V45.9672H1177.01V47.7428H1177.14C1177.39 47.1651 1177.79 46.7011 1178.32 46.3507C1178.86 46.0004 1179.54 45.8252 1180.36 45.8252C1181.1 45.8252 1181.76 45.9814 1182.31 46.2939C1182.87 46.6017 1183.31 47.061 1183.61 47.6718C1183.92 48.2826 1184.08 49.0378 1184.08 49.9374V56.8763H1181.95V50.1931C1181.95 49.4024 1181.75 48.7845 1181.33 48.3394C1180.92 47.8896 1180.36 47.6647 1179.64 47.6647C1179.14 47.6647 1178.71 47.7712 1178.32 47.9843C1177.94 48.1973 1177.64 48.5098 1177.42 48.9218C1177.2 49.329 1177.09 49.8214 1177.09 50.399ZM1191.52 57.0965C1190.46 57.0965 1189.55 56.8574 1188.79 56.3792C1188.03 55.8962 1187.45 55.231 1187.04 54.3834C1186.64 53.5359 1186.43 52.5652 1186.43 51.4715C1186.43 50.3635 1186.64 49.3858 1187.06 48.5382C1187.48 47.686 1188.06 47.0207 1188.82 46.5425C1189.58 46.0643 1190.47 45.8252 1191.5 45.8252C1192.33 45.8252 1193.06 45.9791 1193.71 46.2868C1194.36 46.5899 1194.89 47.016 1195.28 47.5652C1195.69 48.1145 1195.92 48.756 1196 49.4899H1193.93C1193.82 48.9786 1193.56 48.5382 1193.15 48.1689C1192.75 47.7996 1192.21 47.6149 1191.53 47.6149C1190.94 47.6149 1190.42 47.7712 1189.98 48.0837C1189.54 48.3915 1189.19 48.8318 1188.95 49.4047C1188.7 49.9729 1188.58 50.6453 1188.58 51.4218C1188.58 52.2172 1188.7 52.9038 1188.94 53.4814C1189.18 54.0591 1189.52 54.5065 1189.96 54.8238C1190.41 55.141 1190.93 55.2996 1191.53 55.2996C1191.94 55.2996 1192.3 55.2262 1192.63 55.0794C1192.96 54.9279 1193.24 54.7125 1193.46 54.4331C1193.69 54.1538 1193.84 53.8176 1193.93 53.4246H1196C1195.92 54.1301 1195.69 54.7598 1195.31 55.3138C1194.93 55.8678 1194.41 56.3034 1193.77 56.6206C1193.13 56.9379 1192.38 57.0965 1191.52 57.0965ZM1198.27 56.8763V45.9672H1200.39V56.8763H1198.27ZM1199.34 44.284C1198.97 44.284 1198.66 44.1609 1198.39 43.9147C1198.13 43.6637 1198 43.3654 1198 43.0198C1198 42.6694 1198.13 42.3711 1198.39 42.1249C1198.66 41.8739 1198.97 41.7485 1199.34 41.7485C1199.71 41.7485 1200.03 41.8739 1200.29 42.1249C1200.55 42.3711 1200.69 42.6694 1200.69 43.0198C1200.69 43.3654 1200.55 43.6637 1200.29 43.9147C1200.03 44.1609 1199.71 44.284 1199.34 44.284ZM1206.43 57.1178C1205.74 57.1178 1205.11 56.9899 1204.55 56.7343C1203.99 56.4739 1203.55 56.0974 1203.22 55.605C1202.9 55.1126 1202.74 54.5089 1202.74 53.7939C1202.74 53.1784 1202.86 52.6718 1203.1 52.274C1203.33 51.8763 1203.65 51.5614 1204.05 51.3294C1204.46 51.0974 1204.91 50.9222 1205.4 50.8039C1205.9 50.6855 1206.41 50.5955 1206.92 50.534C1207.58 50.4582 1208.11 50.3967 1208.51 50.3493C1208.92 50.2972 1209.22 50.2144 1209.4 50.1007C1209.59 49.9871 1209.68 49.8024 1209.68 49.5468V49.4971C1209.68 48.8768 1209.5 48.3962 1209.15 48.0553C1208.81 47.7144 1208.29 47.5439 1207.61 47.5439C1206.89 47.5439 1206.33 47.7025 1205.92 48.0198C1205.51 48.3323 1205.23 48.6803 1205.07 49.0638L1203.07 48.6093C1203.31 47.9464 1203.66 47.4113 1204.11 47.0042C1204.57 46.5922 1205.1 46.2939 1205.69 46.1093C1206.29 45.9199 1206.92 45.8252 1207.58 45.8252C1208.01 45.8252 1208.47 45.8773 1208.96 45.9814C1209.45 46.0809 1209.91 46.2655 1210.34 46.5354C1210.77 46.8053 1211.12 47.1912 1211.4 47.6931C1211.67 48.1902 1211.81 48.8365 1211.81 49.632V56.8763H1209.74V55.3848H1209.65C1209.51 55.6595 1209.31 55.9293 1209.03 56.1945C1208.76 56.4596 1208.41 56.6798 1207.97 56.855C1207.54 57.0302 1207.03 57.1178 1206.43 57.1178ZM1206.89 55.4132C1207.48 55.4132 1207.98 55.2972 1208.39 55.0652C1208.82 54.8332 1209.13 54.5302 1209.35 54.1561C1209.58 53.7774 1209.69 53.3725 1209.69 52.9417V51.5354C1209.61 51.6112 1209.46 51.6822 1209.25 51.7485C1209.03 51.81 1208.79 51.8645 1208.51 51.9118C1208.24 51.9544 1207.97 51.9947 1207.71 52.0326C1207.45 52.0657 1207.23 52.0941 1207.06 52.1178C1206.65 52.1699 1206.27 52.2575 1205.93 52.3806C1205.59 52.5037 1205.32 52.6812 1205.12 52.9132C1204.92 53.1405 1204.82 53.4435 1204.82 53.8223C1204.82 54.3479 1205.02 54.7456 1205.4 55.0155C1205.79 55.2807 1206.29 55.4132 1206.89 55.4132ZM1222.81 48.6306L1220.89 48.9715C1220.81 48.7253 1220.68 48.4909 1220.5 48.2684C1220.33 48.0458 1220.1 47.8635 1219.81 47.7215C1219.52 47.5794 1219.15 47.5084 1218.71 47.5084C1218.11 47.5084 1217.6 47.6434 1217.2 47.9132C1216.8 48.1784 1216.6 48.5217 1216.6 48.9431C1216.6 49.3077 1216.73 49.6012 1217 49.8238C1217.27 50.0463 1217.71 50.2286 1218.31 50.3706L1220.04 50.7684C1221.05 51.0004 1221.8 51.3578 1222.29 51.8408C1222.78 52.3238 1223.03 52.9511 1223.03 53.7229C1223.03 54.3763 1222.84 54.9587 1222.46 55.4701C1222.08 55.9767 1221.56 56.3744 1220.89 56.6632C1220.22 56.9521 1219.45 57.0965 1218.57 57.0965C1217.34 57.0965 1216.35 56.8361 1215.58 56.3152C1214.8 55.7897 1214.33 55.0439 1214.16 54.078L1216.21 53.7655C1216.34 54.3006 1216.6 54.7054 1217 54.98C1217.39 55.2499 1217.91 55.3848 1218.55 55.3848C1219.25 55.3848 1219.8 55.2404 1220.22 54.9516C1220.64 54.658 1220.85 54.3006 1220.85 53.8792C1220.85 53.5382 1220.72 53.2518 1220.46 53.0198C1220.21 52.7878 1219.83 52.6126 1219.3 52.4942L1217.46 52.0894C1216.44 51.8574 1215.69 51.4881 1215.2 50.9814C1214.72 50.4748 1214.48 49.8332 1214.48 49.0567C1214.48 48.4128 1214.66 47.8493 1215.01 47.3664C1215.37 46.8834 1215.87 46.507 1216.51 46.2371C1217.14 45.9625 1217.87 45.8252 1218.69 45.8252C1219.87 45.8252 1220.79 46.0809 1221.47 46.5922C1222.15 47.0988 1222.6 47.7783 1222.81 48.6306Z" fill="white"/>
<rect x="1257.4" y="31.4538" width="200" height="36.8421" rx="12.6316" fill="#006494"/>
<path d="M1299.06 55.8764V43.6276H1307.17V45.7628H1301.65V48.6814H1306.64V50.8166H1301.65V55.8764H1299.06ZM1311.37 56.0498C1310.79 56.0498 1310.26 55.9482 1309.81 55.7448C1309.35 55.5375 1308.98 55.2325 1308.72 54.8298C1308.45 54.4231 1308.32 53.9167 1308.32 53.3106C1308.32 52.8002 1308.42 52.3716 1308.6 52.0247C1308.79 51.6778 1309.05 51.3987 1309.37 51.1874C1309.69 50.9761 1310.06 50.8166 1310.47 50.7089C1310.88 50.6013 1311.32 50.5255 1311.77 50.4817C1312.31 50.4258 1312.74 50.374 1313.07 50.3262C1313.39 50.2743 1313.63 50.1986 1313.78 50.0989C1313.93 49.9992 1314 49.8517 1314 49.6563V49.6204C1314 49.2416 1313.88 48.9486 1313.64 48.7412C1313.4 48.5339 1313.07 48.4302 1312.64 48.4302C1312.18 48.4302 1311.81 48.5319 1311.54 48.7353C1311.27 48.9346 1311.09 49.1858 1311 49.4888L1308.65 49.2975C1308.77 48.7392 1309 48.2568 1309.35 47.8501C1309.7 47.4394 1310.16 47.1244 1310.71 46.9051C1311.27 46.6818 1311.91 46.5702 1312.65 46.5702C1313.16 46.5702 1313.65 46.63 1314.11 46.7496C1314.58 46.8692 1315 47.0546 1315.36 47.3058C1315.73 47.557 1316.02 47.88 1316.23 48.2747C1316.44 48.6655 1316.55 49.134 1316.55 49.6802V55.8764H1314.13V54.6025H1314.06C1313.91 54.8896 1313.71 55.1428 1313.47 55.362C1313.22 55.5774 1312.92 55.7468 1312.58 55.8704C1312.23 55.99 1311.83 56.0498 1311.37 56.0498ZM1312.1 54.2915C1312.48 54.2915 1312.81 54.2177 1313.1 54.0702C1313.38 53.9187 1313.61 53.7153 1313.77 53.4601C1313.94 53.205 1314.02 52.9159 1314.02 52.5929V51.618C1313.94 51.6699 1313.83 51.7177 1313.69 51.7616C1313.55 51.8014 1313.4 51.8393 1313.23 51.8752C1313.06 51.9071 1312.88 51.937 1312.71 51.9649C1312.54 51.9888 1312.39 52.0108 1312.25 52.0307C1311.95 52.0746 1311.69 52.1443 1311.46 52.24C1311.24 52.3357 1311.07 52.4653 1310.94 52.6288C1310.82 52.7883 1310.76 52.9876 1310.76 53.2269C1310.76 53.5738 1310.88 53.8389 1311.13 54.0223C1311.39 54.2018 1311.71 54.2915 1312.1 54.2915ZM1322.67 56.0558C1321.73 56.0558 1320.92 55.8565 1320.25 55.4577C1319.57 55.055 1319.05 54.4968 1318.69 53.7831C1318.33 53.0694 1318.15 52.248 1318.15 51.319C1318.15 50.378 1318.33 49.5526 1318.7 48.8429C1319.06 48.1292 1319.58 47.573 1320.26 47.1742C1320.93 46.7715 1321.73 46.5702 1322.66 46.5702C1323.46 46.5702 1324.17 46.7157 1324.77 47.0068C1325.37 47.2979 1325.85 47.7065 1326.2 48.2329C1326.55 48.7592 1326.74 49.3772 1326.78 50.0869H1324.37C1324.3 49.6284 1324.13 49.2596 1323.83 48.9805C1323.55 48.6974 1323.17 48.5558 1322.7 48.5558C1322.31 48.5558 1321.96 48.6635 1321.67 48.8788C1321.38 49.0901 1321.15 49.3991 1320.99 49.8058C1320.82 50.2125 1320.74 50.705 1320.74 51.2831C1320.74 51.8692 1320.82 52.3676 1320.98 52.7783C1321.14 53.189 1321.37 53.502 1321.67 53.7173C1321.96 53.9326 1322.31 54.0403 1322.7 54.0403C1323 54.0403 1323.26 53.9805 1323.49 53.8609C1323.72 53.7412 1323.92 53.5678 1324.07 53.3405C1324.22 53.1093 1324.32 52.8321 1324.37 52.5092H1326.78C1326.74 53.2109 1326.55 53.829 1326.2 54.3632C1325.86 54.8935 1325.4 55.3082 1324.8 55.6073C1324.2 55.9063 1323.49 56.0558 1322.67 56.0558ZM1322.08 55.8286H1323.25L1323.15 56.3489C1323.56 56.4127 1323.9 56.5662 1324.16 56.8094C1324.42 57.0526 1324.55 57.3836 1324.56 57.8022C1324.56 58.3963 1324.29 58.8688 1323.73 59.2197C1323.18 59.5746 1322.4 59.752 1321.4 59.752L1321.38 58.6156C1321.88 58.6156 1322.27 58.5538 1322.55 58.4302C1322.84 58.3106 1322.99 58.1232 1323 57.868C1323.01 57.6248 1322.92 57.4394 1322.72 57.3118C1322.53 57.1842 1322.22 57.0945 1321.81 57.0427L1322.08 55.8286ZM1331.03 56.0498C1330.44 56.0498 1329.92 55.9482 1329.46 55.7448C1329 55.5375 1328.64 55.2325 1328.37 54.8298C1328.11 54.4231 1327.98 53.9167 1327.98 53.3106C1327.98 52.8002 1328.07 52.3716 1328.26 52.0247C1328.45 51.6778 1328.7 51.3987 1329.02 51.1874C1329.35 50.9761 1329.71 50.8166 1330.12 50.7089C1330.54 50.6013 1330.97 50.5255 1331.43 50.4817C1331.96 50.4258 1332.39 50.374 1332.72 50.3262C1333.05 50.2743 1333.28 50.1986 1333.43 50.0989C1333.58 49.9992 1333.65 49.8517 1333.65 49.6563V49.6204C1333.65 49.2416 1333.53 48.9486 1333.29 48.7412C1333.06 48.5339 1332.72 48.4302 1332.29 48.4302C1331.83 48.4302 1331.47 48.5319 1331.2 48.7353C1330.92 48.9346 1330.74 49.1858 1330.66 49.4888L1328.3 49.2975C1328.42 48.7392 1328.66 48.2568 1329.01 47.8501C1329.36 47.4394 1329.81 47.1244 1330.36 46.9051C1330.92 46.6818 1331.57 46.5702 1332.3 46.5702C1332.81 46.5702 1333.3 46.63 1333.77 46.7496C1334.24 46.8692 1334.65 47.0546 1335.02 47.3058C1335.38 47.557 1335.67 47.88 1335.88 48.2747C1336.1 48.6655 1336.2 49.134 1336.2 49.6802V55.8764H1333.78V54.6025H1333.71C1333.57 54.8896 1333.37 55.1428 1333.12 55.362C1332.87 55.5774 1332.58 55.7468 1332.23 55.8704C1331.88 55.99 1331.48 56.0498 1331.03 56.0498ZM1331.76 54.2915C1332.13 54.2915 1332.46 54.2177 1332.75 54.0702C1333.04 53.9187 1333.26 53.7153 1333.43 53.4601C1333.59 53.205 1333.67 52.9159 1333.67 52.5929V51.618C1333.59 51.6699 1333.48 51.7177 1333.34 51.7616C1333.21 51.8014 1333.05 51.8393 1332.88 51.8752C1332.71 51.9071 1332.54 51.937 1332.37 51.9649C1332.2 51.9888 1332.04 52.0108 1331.9 52.0307C1331.6 52.0746 1331.34 52.1443 1331.12 52.24C1330.89 52.3357 1330.72 52.4653 1330.6 52.6288C1330.47 52.7883 1330.41 52.9876 1330.41 53.2269C1330.41 53.5738 1330.54 53.8389 1330.79 54.0223C1331.04 54.2018 1331.37 54.2915 1331.76 54.2915ZM1349.72 49.3094L1347.39 49.453C1347.35 49.2536 1347.26 49.0742 1347.13 48.9147C1347 48.7512 1346.82 48.6216 1346.61 48.5259C1346.4 48.4262 1346.14 48.3764 1345.85 48.3764C1345.46 48.3764 1345.12 48.4601 1344.85 48.6276C1344.58 48.7911 1344.44 49.0104 1344.44 49.2855C1344.44 49.5048 1344.53 49.6902 1344.71 49.8417C1344.88 49.9932 1345.18 50.1148 1345.61 50.2065L1347.27 50.5415C1348.17 50.7249 1348.83 51.0199 1349.27 51.4266C1349.71 51.8333 1349.93 52.3676 1349.93 53.0295C1349.93 53.6316 1349.75 54.1599 1349.4 54.6144C1349.05 55.069 1348.56 55.4239 1347.95 55.679C1347.34 55.9302 1346.64 56.0558 1345.84 56.0558C1344.62 56.0558 1343.65 55.8026 1342.93 55.2963C1342.21 54.7859 1341.79 54.0921 1341.67 53.2149L1344.18 53.0833C1344.25 53.4542 1344.43 53.7372 1344.73 53.9326C1345.02 54.124 1345.39 54.2197 1345.84 54.2197C1346.29 54.2197 1346.65 54.134 1346.92 53.9625C1347.2 53.7871 1347.34 53.5618 1347.34 53.2867C1347.34 53.0554 1347.24 52.866 1347.05 52.7185C1346.85 52.567 1346.56 52.4514 1346.16 52.3716L1344.57 52.0546C1343.67 51.8752 1343 51.5642 1342.57 51.1216C1342.13 50.679 1341.91 50.1148 1341.91 49.429C1341.91 48.8389 1342.07 48.3305 1342.39 47.9039C1342.72 47.4773 1343.17 47.1483 1343.75 46.9171C1344.34 46.6858 1345.02 46.5702 1345.81 46.5702C1346.97 46.5702 1347.88 46.8154 1348.55 47.3058C1349.22 47.7963 1349.61 48.4641 1349.72 49.3094ZM1355.72 56.0558C1354.77 56.0558 1353.96 55.8644 1353.28 55.4817C1352.6 55.0949 1352.08 54.5487 1351.71 53.8429C1351.35 53.1332 1351.16 52.2939 1351.16 51.325C1351.16 50.38 1351.35 49.5506 1351.71 48.8369C1352.08 48.1232 1352.6 47.567 1353.26 47.1683C1353.93 46.7695 1354.72 46.5702 1355.62 46.5702C1356.22 46.5702 1356.79 46.6679 1357.31 46.8632C1357.84 47.0546 1358.3 47.3437 1358.69 47.7305C1359.08 48.1172 1359.39 48.6037 1359.61 49.1898C1359.83 49.7719 1359.94 50.4538 1359.94 51.2353V51.935H1352.18V50.3561H1357.54C1357.54 49.9892 1357.46 49.6643 1357.3 49.3812C1357.14 49.0981 1356.92 48.8768 1356.63 48.7173C1356.36 48.5538 1356.03 48.4721 1355.66 48.4721C1355.27 48.4721 1354.93 48.5618 1354.63 48.7412C1354.34 48.9167 1354.1 49.1539 1353.94 49.453C1353.77 49.748 1353.68 50.077 1353.68 50.4398V51.941C1353.68 52.3955 1353.76 52.7883 1353.93 53.1192C1354.1 53.4502 1354.34 53.7054 1354.66 53.8848C1354.97 54.0642 1355.34 54.1539 1355.76 54.1539C1356.04 54.1539 1356.3 54.114 1356.54 54.0343C1356.77 53.9546 1356.98 53.8349 1357.14 53.6754C1357.31 53.516 1357.44 53.3206 1357.53 53.0893L1359.88 53.2448C1359.76 53.811 1359.52 54.3054 1359.15 54.7281C1358.78 55.1467 1358.31 55.4737 1357.72 55.7089C1357.15 55.9402 1356.48 56.0558 1355.72 56.0558ZM1367.49 51.9649V46.6898H1370.04V55.8764H1367.59V54.2077H1367.5C1367.29 54.746 1366.94 55.1786 1366.46 55.5056C1365.98 55.8325 1365.4 55.996 1364.71 55.996C1364.09 55.996 1363.55 55.8565 1363.09 55.5774C1362.62 55.2983 1362.26 54.9015 1361.99 54.3872C1361.73 53.8728 1361.6 53.2568 1361.6 52.5391V46.6898H1364.15V52.0845C1364.15 52.6268 1364.3 53.0554 1364.58 53.3704C1364.87 53.6854 1365.26 53.8429 1365.74 53.8429C1366.04 53.8429 1366.33 53.7731 1366.6 53.6336C1366.87 53.49 1367.08 53.2787 1367.24 52.9996C1367.41 52.7205 1367.49 52.3756 1367.49 51.9649ZM1378.52 43.6276V55.8764H1375.97V43.6276H1378.52ZM1384.71 56.0558C1383.78 56.0558 1382.98 55.8585 1382.3 55.4637C1381.63 55.065 1381.11 54.5108 1380.74 53.801C1380.38 53.0873 1380.19 52.26 1380.19 51.319C1380.19 50.37 1380.38 49.5407 1380.74 48.8309C1381.11 48.1172 1381.63 47.563 1382.3 47.1683C1382.98 46.7695 1383.78 46.5702 1384.71 46.5702C1385.64 46.5702 1386.44 46.7695 1387.12 47.1683C1387.8 47.563 1388.32 48.1172 1388.68 48.8309C1389.05 49.5407 1389.24 50.37 1389.24 51.319C1389.24 52.26 1389.05 53.0873 1388.68 53.801C1388.32 54.5108 1387.8 55.065 1387.12 55.4637C1386.44 55.8585 1385.64 56.0558 1384.71 56.0558ZM1384.73 54.0821C1385.15 54.0821 1385.5 53.9625 1385.78 53.7233C1386.07 53.4801 1386.28 53.1491 1386.42 52.7305C1386.57 52.3118 1386.65 51.8353 1386.65 51.301C1386.65 50.7668 1386.57 50.2903 1386.42 49.8716C1386.28 49.453 1386.07 49.122 1385.78 48.8788C1385.5 48.6356 1385.15 48.514 1384.73 48.514C1384.3 48.514 1383.94 48.6356 1383.65 48.8788C1383.36 49.122 1383.14 49.453 1383 49.8716C1382.85 50.2903 1382.78 50.7668 1382.78 51.301C1382.78 51.8353 1382.85 52.3118 1383 52.7305C1383.14 53.1491 1383.36 53.4801 1383.65 53.7233C1383.94 53.9625 1384.3 54.0821 1384.73 54.0821ZM1395.03 59.5128C1394.21 59.5128 1393.5 59.3991 1392.91 59.1719C1392.32 58.9486 1391.85 58.6435 1391.51 58.2568C1391.16 57.87 1390.94 57.4354 1390.83 56.953L1393.19 56.636C1393.26 56.8194 1393.37 56.9908 1393.53 57.1503C1393.68 57.3098 1393.89 57.4374 1394.15 57.5331C1394.4 57.6328 1394.72 57.6826 1395.09 57.6826C1395.64 57.6826 1396.1 57.5471 1396.46 57.2759C1396.82 57.0088 1397 56.5602 1397 55.9302V54.2496H1396.9C1396.78 54.5048 1396.62 54.746 1396.39 54.9733C1396.17 55.2006 1395.88 55.386 1395.53 55.5295C1395.18 55.6731 1394.76 55.7448 1394.28 55.7448C1393.59 55.7448 1392.96 55.5853 1392.39 55.2664C1391.83 54.9434 1391.38 54.451 1391.05 53.7891C1390.72 53.1232 1390.55 52.2819 1390.55 51.2652C1390.55 50.2245 1390.72 49.3553 1391.06 48.6575C1391.4 47.9597 1391.85 47.4374 1392.41 47.0905C1392.98 46.7436 1393.6 46.5702 1394.27 46.5702C1394.79 46.5702 1395.22 46.6579 1395.56 46.8333C1395.91 47.0048 1396.19 47.2201 1396.4 47.4793C1396.62 47.7345 1396.78 47.9857 1396.9 48.2329H1396.99V46.6898H1399.52V55.9661C1399.52 56.7476 1399.33 57.4015 1398.95 57.9278C1398.57 58.4542 1398.03 58.8489 1397.36 59.112C1396.68 59.3792 1395.91 59.5128 1395.03 59.5128ZM1395.08 53.8309C1395.5 53.8309 1395.84 53.7293 1396.13 53.5259C1396.41 53.3186 1396.63 53.0235 1396.78 52.6408C1396.94 52.254 1397.02 51.7915 1397.02 51.2532C1397.02 50.7149 1396.94 50.2484 1396.79 49.8537C1396.64 49.455 1396.42 49.1459 1396.13 48.9266C1395.84 48.7073 1395.5 48.5977 1395.08 48.5977C1394.67 48.5977 1394.31 48.7113 1394.03 48.9386C1393.74 49.1619 1393.52 49.4729 1393.37 49.8716C1393.23 50.2703 1393.15 50.7309 1393.15 51.2532C1393.15 51.7835 1393.23 52.242 1393.37 52.6288C1393.53 53.0116 1393.74 53.3086 1394.03 53.5199C1394.31 53.7273 1394.67 53.8309 1395.08 53.8309ZM1401.55 55.8764V46.6898H1404.1V55.8764H1401.55ZM1402.83 45.5056C1402.45 45.5056 1402.13 45.38 1401.85 45.1288C1401.59 44.8736 1401.45 44.5686 1401.45 44.2137C1401.45 43.8628 1401.59 43.5618 1401.85 43.3106C1402.13 43.0554 1402.45 42.9278 1402.83 42.9278C1403.21 42.9278 1403.53 43.0554 1403.8 43.3106C1404.07 43.5618 1404.21 43.8628 1404.21 44.2137C1404.21 44.5686 1404.07 44.8736 1403.8 45.1288C1403.53 45.38 1403.21 45.5056 1402.83 45.5056ZM1408.69 50.5654V55.8764H1406.14V46.6898H1408.57V48.3106H1408.67C1408.88 47.7763 1409.22 47.3537 1409.7 47.0427C1410.18 46.7277 1410.76 46.5702 1411.44 46.5702C1412.08 46.5702 1412.63 46.7097 1413.11 46.9888C1413.58 47.268 1413.95 47.6667 1414.21 48.185C1414.48 48.6994 1414.61 49.3134 1414.61 50.0271V55.8764H1412.06V50.4817C1412.06 49.9195 1411.92 49.4809 1411.63 49.1659C1411.34 48.8469 1410.94 48.6874 1410.43 48.6874C1410.08 48.6874 1409.78 48.7612 1409.52 48.9087C1409.26 49.0562 1409.06 49.2715 1408.91 49.5546C1408.76 49.8337 1408.69 50.1707 1408.69 50.5654Z" fill="white"/>
<defs>
<clipPath id="clip0_37_172">
<rect width="54" height="30" fill="white" transform="translate(896.404 34.8748)"/>
</clipPath>
<clipPath id="clip1_37_172">
<rect width="80" height="30" fill="white" transform="translate(978.404 34.8748)"/>
</clipPath>
</defs>
</svg>
