<svg width="1512" height="100" viewBox="0 0 1512 100" fill="none" xmlns="http://www.w3.org/2000/svg">
<rect width="1512" height="100" fill="#13293D"/>
<path d="M56.8539 33.3626C52.713 29.7673 52.2715 27.4204 56.2862 22.3874L61.3954 25.2258C56.0971 28.0642 55.5991 29.5395 56.8539 33.3626Z" fill="#006494"/>
<path d="M57.4217 29.3888C58.9071 29.1393 59.8603 28.1981 61.5847 26.3612C63.1754 26.9599 64.0897 28.4427 63.6662 29.7673C62.1962 34.3645 60.6158 33.2392 57.4217 29.3888Z" fill="#006494"/>
<path d="M84.4812 58.5298C84.4812 58.5298 83.535 76.8849 83.7243 80.8587C83.9135 84.8325 87.2725 87.079 92.618 88.0493L84.4812 58.5298Z" fill="#006494"/>
<path d="M81.4536 77.0742C76.912 74.0465 77.2905 69.6943 82.7782 57.3945C82.0212 67.9912 82.0212 68.1805 81.4536 77.0742Z" fill="#006494"/>
<path d="M92.9963 59.6652C68.1759 48.7521 60.3392 44.1987 60.8277 39.7963C62.3924 31.1324 69.7214 31.0919 72.5598 32.2273C75.3982 33.3626 79.6741 38.7599 83.535 44.3377L76.912 39.4179L92.9963 59.6652Z" fill="#006494"/>
<path d="M62.1523 24.6581C61.3182 22.1292 61.5235 21.2961 62.9093 20.6843C65.7477 19.4312 68.5861 25.2258 64.6123 25.7935L66.1261 28.2532C68.878 28.4366 70.4944 29.0206 73.506 30.9024C74.0737 27.4963 65.18 18.5139 62.9093 18.2242C58.9169 17.715 57.4063 18.2633 56.0971 20.8734L62.1523 24.6581Z" fill="#006494"/>
<path d="M114.824 48.1535V30.4468H118.568V37.7525H126.168V30.4468H129.903V48.1535H126.168V40.8391H118.568V48.1535H114.824ZM138.92 48.4129C137.577 48.4129 136.416 48.1276 135.436 47.5569C134.462 46.9805 133.71 46.1794 133.179 45.1534C132.649 44.1216 132.384 42.9256 132.384 41.5653C132.384 40.1935 132.649 38.9946 133.179 37.9687C133.71 36.9369 134.462 36.1357 135.436 35.5651C136.416 34.9887 137.577 34.7005 138.92 34.7005C140.263 34.7005 141.422 34.9887 142.396 35.5651C143.376 36.1357 144.131 36.9369 144.661 37.9687C145.191 38.9946 145.457 40.1935 145.457 41.5653C145.457 42.9256 145.191 44.1216 144.661 45.1534C144.131 46.1794 143.376 46.9805 142.396 47.5569C141.422 48.1276 140.263 48.4129 138.92 48.4129ZM138.938 45.5597C139.549 45.5597 140.059 45.3868 140.468 45.041C140.877 44.6894 141.186 44.211 141.393 43.6058C141.606 43.0006 141.713 42.3118 141.713 41.5394C141.713 40.767 141.606 40.0783 141.393 39.473C141.186 38.8678 140.877 38.3894 140.468 38.0378C140.059 37.6862 139.549 37.5104 138.938 37.5104C138.321 37.5104 137.802 37.6862 137.381 38.0378C136.966 38.3894 136.652 38.8678 136.439 39.473C136.231 40.0783 136.128 40.767 136.128 41.5394C136.128 42.3118 136.231 43.0006 136.439 43.6058C136.652 44.211 136.966 44.6894 137.381 45.041C137.802 45.3868 138.321 45.5597 138.938 45.5597ZM154.915 34.8734V37.6401H146.918V34.8734H154.915ZM148.733 31.6918H152.417V44.0727C152.417 44.4127 152.468 44.6779 152.572 44.8681C152.676 45.0525 152.82 45.1822 153.004 45.2571C153.195 45.3321 153.414 45.3695 153.662 45.3695C153.834 45.3695 154.007 45.3551 154.18 45.3263C154.353 45.2917 154.486 45.2658 154.578 45.2485L155.157 47.9892C154.973 48.0469 154.713 48.1132 154.379 48.1881C154.045 48.2688 153.638 48.3178 153.16 48.3351C152.272 48.3697 151.494 48.2515 150.826 47.9806C150.163 47.7097 149.647 47.2889 149.278 46.7183C148.909 46.1477 148.728 45.4272 148.733 44.5568V31.6918ZM163.224 48.4129C161.858 48.4129 160.682 48.1362 159.696 47.5829C158.716 47.0238 157.961 46.2341 157.431 45.2139C156.901 44.1879 156.636 42.9746 156.636 41.574C156.636 40.2079 156.901 39.0091 157.431 37.9773C157.961 36.9456 158.708 36.1415 159.67 35.5651C160.639 34.9887 161.774 34.7005 163.077 34.7005C163.953 34.7005 164.769 34.8417 165.524 35.1242C166.285 35.4008 166.947 35.8187 167.512 36.3778C168.083 36.9369 168.527 37.6401 168.844 38.4874C169.161 39.3289 169.319 40.3146 169.319 41.4443V42.4559H158.106V40.1734H165.852C165.852 39.6431 165.737 39.1733 165.506 38.7641C165.276 38.3548 164.956 38.035 164.547 37.8044C164.143 37.5681 163.673 37.4499 163.137 37.4499C162.578 37.4499 162.083 37.5796 161.65 37.839C161.224 38.0926 160.889 38.4355 160.647 38.8678C160.405 39.2944 160.281 39.7699 160.276 40.2944V42.4645C160.276 43.1216 160.397 43.6894 160.639 44.1678C160.887 44.6462 161.235 45.0151 161.685 45.2744C162.134 45.5338 162.668 45.6635 163.284 45.6635C163.694 45.6635 164.068 45.6059 164.408 45.4906C164.748 45.3753 165.039 45.2024 165.282 44.9718C165.524 44.7413 165.708 44.4588 165.835 44.1245L169.241 44.3493C169.068 45.1678 168.714 45.8825 168.178 46.4935C167.648 47.0987 166.962 47.5713 166.12 47.9114C165.284 48.2457 164.319 48.4129 163.224 48.4129ZM175.406 30.4468V48.1535H171.723V30.4468H175.406ZM114.824 77.1535V59.4468H121.914C123.217 59.4468 124.303 59.6398 125.173 60.026C126.044 60.4122 126.698 60.9483 127.136 61.6342C127.574 62.3143 127.793 63.0982 127.793 63.9858C127.793 64.6775 127.655 65.2856 127.378 65.8101C127.101 66.3289 126.721 66.7554 126.237 67.0897C125.758 67.4183 125.211 67.6517 124.594 67.79V67.9629C125.268 67.9918 125.9 68.182 126.488 68.5336C127.081 68.8852 127.563 69.378 127.931 70.012C128.3 70.6403 128.485 71.3896 128.485 72.2599C128.485 73.1995 128.251 74.0381 127.784 74.7759C127.323 75.5079 126.64 76.0872 125.735 76.5137C124.83 76.9402 123.715 77.1535 122.389 77.1535H114.824ZM118.568 74.0929H121.62C122.663 74.0929 123.424 73.894 123.902 73.4963C124.381 73.0928 124.62 72.5568 124.62 71.8882C124.62 71.3982 124.502 70.9659 124.266 70.5913C124.029 70.2166 123.692 69.9227 123.254 69.7094C122.822 69.4961 122.306 69.3895 121.706 69.3895H118.568V74.0929ZM118.568 66.8563H121.343C121.856 66.8563 122.312 66.7669 122.709 66.5882C123.113 66.4038 123.43 66.1444 123.66 65.8101C123.897 65.4758 124.015 65.0752 124.015 64.6083C124.015 63.9685 123.787 63.4527 123.332 63.0607C122.882 62.6688 122.242 62.4728 121.412 62.4728H118.568V66.8563ZM130.852 77.1535V63.8734H134.422V66.1905H134.561C134.803 65.3663 135.209 64.7438 135.78 64.323C136.35 63.8965 137.007 63.6832 137.751 63.6832C137.935 63.6832 138.134 63.6948 138.348 63.7178C138.561 63.7409 138.748 63.7726 138.91 63.8129V67.0811C138.737 67.0292 138.497 66.9831 138.192 66.9427C137.886 66.9024 137.607 66.8822 137.353 66.8822C136.811 66.8822 136.327 67.0004 135.901 67.2367C135.48 67.4672 135.146 67.79 134.898 68.205C134.656 68.62 134.535 69.0984 134.535 69.6402V77.1535H130.852ZM144.22 77.4042C143.373 77.4042 142.618 77.2573 141.955 76.9633C141.292 76.6636 140.768 76.2226 140.381 75.6405C140.001 75.0526 139.811 74.3205 139.811 73.4444C139.811 72.7066 139.946 72.087 140.217 71.5856C140.488 71.0841 140.857 70.6806 141.324 70.3751C141.791 70.0697 142.321 69.8391 142.915 69.6835C143.514 69.5278 144.142 69.4183 144.8 69.3549C145.572 69.2742 146.194 69.1993 146.667 69.1301C147.14 69.0552 147.483 68.9457 147.696 68.8016C147.909 68.6575 148.016 68.4442 148.016 68.1618V68.1099C148.016 67.5623 147.843 67.1387 147.497 66.839C147.157 66.5393 146.673 66.3894 146.045 66.3894C145.382 66.3894 144.854 66.5364 144.462 66.8303C144.07 67.1185 143.811 67.4817 143.684 67.9197L140.278 67.643C140.451 66.8361 140.791 66.1387 141.298 65.5507C141.805 64.9571 142.459 64.5017 143.261 64.1847C144.067 63.8619 145.001 63.7005 146.062 63.7005C146.8 63.7005 147.506 63.787 148.18 63.9599C148.86 64.1328 149.463 64.4008 149.987 64.764C150.517 65.1271 150.935 65.594 151.241 66.1646C151.546 66.7295 151.699 67.4067 151.699 68.1964V77.1535H148.206V75.3119H148.102C147.889 75.7269 147.604 76.0929 147.246 76.41C146.889 76.7212 146.46 76.9662 145.958 77.1449C145.457 77.3178 144.877 77.4042 144.22 77.4042ZM145.275 74.8623C145.817 74.8623 146.295 74.7557 146.71 74.5425C147.125 74.3234 147.451 74.0295 147.687 73.6606C147.924 73.2917 148.042 72.8738 148.042 72.4069V70.9976C147.926 71.0726 147.768 71.1417 147.566 71.2051C147.37 71.2628 147.148 71.3175 146.9 71.3694C146.653 71.4155 146.405 71.4588 146.157 71.4991C145.909 71.5337 145.684 71.5654 145.483 71.5942C145.05 71.6576 144.673 71.7585 144.35 71.8968C144.027 72.0351 143.776 72.2225 143.598 72.4588C143.419 72.6894 143.33 72.9775 143.33 73.3234C143.33 73.8248 143.511 74.2081 143.874 74.4733C144.243 74.7327 144.71 74.8623 145.275 74.8623ZM165.606 67.6603L162.234 67.8678C162.176 67.5796 162.052 67.3203 161.862 67.0897C161.672 66.8534 161.421 66.6661 161.11 66.5277C160.804 66.3836 160.438 66.3116 160.012 66.3116C159.441 66.3116 158.96 66.4326 158.568 66.6747C158.176 66.911 157.98 67.228 157.98 67.6258C157.98 67.9428 158.107 68.2108 158.361 68.4298C158.614 68.6488 159.049 68.8246 159.666 68.9572L162.07 69.4414C163.361 69.7065 164.323 70.1331 164.957 70.721C165.591 71.3089 165.908 72.0813 165.908 73.0381C165.908 73.9084 165.652 74.6721 165.139 75.3292C164.632 75.9863 163.934 76.4993 163.047 76.8682C162.165 77.2313 161.147 77.4129 159.995 77.4129C158.237 77.4129 156.836 77.0469 155.793 76.3149C154.755 75.5771 154.147 74.5742 153.968 73.3061L157.591 73.1159C157.701 73.6519 157.966 74.0612 158.386 74.3436C158.807 74.6203 159.346 74.7586 160.003 74.7586C160.649 74.7586 161.168 74.6347 161.56 74.3868C161.957 74.1332 162.159 73.8076 162.165 73.4098C162.159 73.0755 162.018 72.8017 161.741 72.5885C161.464 72.3695 161.038 72.2023 160.462 72.087L158.162 71.6288C156.865 71.3694 155.899 70.9198 155.265 70.28C154.637 69.6402 154.323 68.8246 154.323 67.8333C154.323 66.9802 154.553 66.2453 155.015 65.6286C155.481 65.0118 156.136 64.5363 156.977 64.202C157.825 63.8677 158.816 63.7005 159.951 63.7005C161.629 63.7005 162.949 64.055 163.911 64.764C164.88 65.4729 165.444 66.4384 165.606 67.6603ZM168.228 77.1535V63.8734H171.911V77.1535H168.228ZM170.078 62.1616C169.53 62.1616 169.061 61.98 168.669 61.6169C168.282 61.248 168.089 60.807 168.089 60.2941C168.089 59.7868 168.282 59.3517 168.669 58.9885C169.061 58.6196 169.53 58.4352 170.078 58.4352C170.625 58.4352 171.092 58.6196 171.479 58.9885C171.87 59.3517 172.066 59.7868 172.066 60.2941C172.066 60.807 171.87 61.248 171.479 61.6169C171.092 61.98 170.625 62.1616 170.078 62.1616ZM178.544 59.4468V77.1535H174.861V59.4468H178.544ZM187.547 77.4129C186.181 77.4129 185.005 77.1362 184.019 76.5829C183.039 76.0238 182.284 75.2341 181.754 74.2139C181.224 73.1879 180.959 71.9746 180.959 70.574C180.959 69.2079 181.224 68.0091 181.754 66.9773C182.284 65.9456 183.031 65.1415 183.993 64.5651C184.962 63.9887 186.097 63.7005 187.4 63.7005C188.276 63.7005 189.092 63.8417 189.847 64.1242C190.608 64.4008 191.27 64.8187 191.835 65.3778C192.406 65.9369 192.85 66.6401 193.167 67.4874C193.484 68.3289 193.642 69.3146 193.642 70.4443V71.4559H182.429V69.1734H190.175C190.175 68.6431 190.06 68.1733 189.829 67.7641C189.599 67.3548 189.279 67.035 188.87 66.8044C188.466 66.5681 187.996 66.4499 187.46 66.4499C186.901 66.4499 186.406 66.5796 185.973 66.839C185.547 67.0926 185.212 67.4355 184.97 67.8678C184.728 68.2944 184.604 68.7699 184.599 69.2944V71.4645C184.599 72.1216 184.72 72.6894 184.962 73.1678C185.21 73.6462 185.558 74.0151 186.008 74.2744C186.457 74.5338 186.991 74.6635 187.607 74.6635C188.017 74.6635 188.391 74.6059 188.731 74.4906C189.071 74.3753 189.362 74.2024 189.605 73.9718C189.847 73.7413 190.031 73.4588 190.158 73.1245L193.564 73.3493C193.391 74.1678 193.037 74.8825 192.501 75.4935C191.971 76.0987 191.285 76.5713 190.443 76.9114C189.607 77.2457 188.642 77.4129 187.547 77.4129ZM196.046 77.1535V63.8734H199.729V77.1535H196.046ZM197.896 62.1616C197.348 62.1616 196.879 61.98 196.487 61.6169C196.101 61.248 195.907 60.807 195.907 60.2941C195.907 59.7868 196.101 59.3517 196.487 58.9885C196.879 58.6196 197.348 58.4352 197.896 58.4352C198.444 58.4352 198.91 58.6196 199.297 58.9885C199.689 59.3517 199.885 59.7868 199.885 60.2941C199.885 60.807 199.689 61.248 199.297 61.6169C198.91 61.98 198.444 62.1616 197.896 62.1616ZM202.679 77.1535V63.8734H206.25V66.1905H206.388C206.63 65.3663 207.037 64.7438 207.607 64.323C208.178 63.8965 208.835 63.6832 209.579 63.6832C209.763 63.6832 209.962 63.6948 210.175 63.7178C210.389 63.7409 210.576 63.7726 210.737 63.8129V67.0811C210.564 67.0292 210.325 66.9831 210.02 66.9427C209.714 66.9024 209.435 66.8822 209.181 66.8822C208.639 66.8822 208.155 67.0004 207.728 67.2367C207.308 67.4672 206.973 67.79 206.726 68.205C206.483 68.62 206.362 69.0984 206.362 69.6402V77.1535H202.679ZM218.024 77.4129C216.681 77.4129 215.519 77.1276 214.539 76.5569C213.565 75.9805 212.813 75.1794 212.283 74.1534C211.752 73.1216 211.487 71.9256 211.487 70.5653C211.487 69.1935 211.752 67.9946 212.283 66.9687C212.813 65.9369 213.565 65.1357 214.539 64.5651C215.519 63.9887 216.681 63.7005 218.024 63.7005C219.367 63.7005 220.525 63.9887 221.499 64.5651C222.479 65.1357 223.234 65.9369 223.764 66.9687C224.295 67.9946 224.56 69.1935 224.56 70.5653C224.56 71.9256 224.295 73.1216 223.764 74.1534C223.234 75.1794 222.479 75.9805 221.499 76.5569C220.525 77.1276 219.367 77.4129 218.024 77.4129ZM218.041 74.5597C218.652 74.5597 219.162 74.3868 219.571 74.041C219.98 73.6894 220.289 73.211 220.496 72.6058C220.71 72.0006 220.816 71.3118 220.816 70.5394C220.816 69.767 220.71 69.0783 220.496 68.473C220.289 67.8678 219.98 67.3894 219.571 67.0378C219.162 66.6862 218.652 66.5104 218.041 66.5104C217.424 66.5104 216.905 66.6862 216.485 67.0378C216.07 67.3894 215.755 67.8678 215.542 68.473C215.335 69.0783 215.231 69.767 215.231 70.5394C215.231 71.3118 215.335 72.0006 215.542 72.6058C215.755 73.211 216.07 73.6894 216.485 74.041C216.905 74.3868 217.424 74.5597 218.041 74.5597Z" fill="white"/>
<g clip-path="url(#clip0_37_280)">
<path d="M1024.94 46.5069V61.0523H1022.75V46.5069H1024.94ZM1030.09 54.575V61.0523H1027.97V50.1432H1030V51.9188H1030.14C1030.39 51.3411 1030.78 50.8771 1031.32 50.5267C1031.86 50.1764 1032.54 50.0012 1033.36 50.0012C1034.1 50.0012 1034.75 50.1574 1035.31 50.4699C1035.87 50.7777 1036.3 51.237 1036.61 51.8478C1036.92 52.4586 1037.07 53.2138 1037.07 54.1134V61.0523H1034.95V54.3691C1034.95 53.5783 1034.74 52.9605 1034.33 52.5154C1033.92 52.0656 1033.35 51.8407 1032.63 51.8407C1032.14 51.8407 1031.7 51.9472 1031.32 52.1603C1030.94 52.3733 1030.64 52.6858 1030.42 53.0978C1030.2 53.505 1030.09 53.9974 1030.09 54.575ZM1039.92 61.0523V50.1432H1042.04V61.0523H1039.92ZM1040.12 48.6872L1041.78 45.4131H1044.02L1041.82 48.6872H1040.12ZM1049.5 61.2725C1048.44 61.2725 1047.53 61.0334 1046.77 60.5551C1046.01 60.0722 1045.43 59.4069 1045.02 58.5594C1044.61 57.7119 1044.41 56.7412 1044.41 55.6475C1044.41 54.5395 1044.62 53.5618 1045.04 52.7142C1045.45 51.862 1046.04 51.1967 1046.8 50.7185C1047.55 50.2403 1048.45 50.0012 1049.47 50.0012C1050.3 50.0012 1051.04 50.1551 1051.69 50.4628C1052.34 50.7658 1052.86 51.192 1053.26 51.7412C1053.66 52.2905 1053.9 52.932 1053.98 53.6659H1051.91C1051.8 53.1546 1051.54 52.7142 1051.13 52.3449C1050.73 51.9756 1050.19 51.7909 1049.51 51.7909C1048.92 51.7909 1048.4 51.9472 1047.95 52.2597C1047.51 52.5675 1047.17 53.0078 1046.92 53.5807C1046.68 54.1489 1046.56 54.8212 1046.56 55.5978C1046.56 56.3932 1046.68 57.0798 1046.92 57.6574C1047.16 58.2351 1047.5 58.6825 1047.94 58.9998C1048.39 59.317 1048.91 59.4756 1049.51 59.4756C1049.91 59.4756 1050.28 59.4022 1050.6 59.2554C1050.93 59.1039 1051.21 58.8885 1051.43 58.6091C1051.66 58.3298 1051.82 57.9936 1051.91 57.6006H1053.98C1053.9 58.3061 1053.67 58.9358 1053.29 59.4898C1052.9 60.0438 1052.39 60.4794 1051.75 60.7966C1051.11 61.1139 1050.36 61.2725 1049.5 61.2725ZM1056.25 61.0523V50.1432H1058.37V61.0523H1056.25ZM1057.32 48.46C1056.95 48.46 1056.63 48.3369 1056.37 48.0907C1056.11 47.8397 1055.98 47.5414 1055.98 47.1958C1055.98 46.8454 1056.11 46.5471 1056.37 46.3009C1056.63 46.0499 1056.95 45.9245 1057.32 45.9245C1057.69 45.9245 1058 46.0499 1058.26 46.3009C1058.53 46.5471 1058.66 46.8454 1058.66 47.1958C1058.66 47.5414 1058.53 47.8397 1058.26 48.0907C1058 48.3369 1057.69 48.46 1057.32 48.46ZM1065.82 61.2725C1064.8 61.2725 1063.91 61.0381 1063.15 60.5694C1062.38 60.1006 1061.79 59.4448 1061.37 58.602C1060.95 57.7592 1060.74 56.7744 1060.74 55.6475C1060.74 54.5158 1060.95 53.5263 1061.37 52.6787C1061.79 51.8312 1062.38 51.173 1063.15 50.7043C1063.91 50.2355 1064.8 50.0012 1065.82 50.0012C1066.85 50.0012 1067.74 50.2355 1068.5 50.7043C1069.26 51.173 1069.86 51.8312 1070.28 52.6787C1070.7 53.5263 1070.91 54.5158 1070.91 55.6475C1070.91 56.7744 1070.7 57.7592 1070.28 58.602C1069.86 59.4448 1069.26 60.1006 1068.5 60.5694C1067.74 61.0381 1066.85 61.2725 1065.82 61.2725ZM1065.83 59.4898C1066.49 59.4898 1067.04 59.3146 1067.48 58.9642C1067.91 58.6139 1068.24 58.1475 1068.44 57.5651C1068.66 56.9827 1068.76 56.3411 1068.76 55.6404C1068.76 54.9444 1068.66 54.3051 1068.44 53.7228C1068.24 53.1356 1067.91 52.6645 1067.48 52.3094C1067.04 51.9543 1066.49 51.7767 1065.83 51.7767C1065.16 51.7767 1064.61 51.9543 1064.17 52.3094C1063.73 52.6645 1063.41 53.1356 1063.2 53.7228C1062.99 54.3051 1062.88 54.9444 1062.88 55.6404C1062.88 56.3411 1062.99 56.9827 1063.2 57.5651C1063.41 58.1475 1063.73 58.6139 1064.17 58.9642C1064.61 59.3146 1065.16 59.4898 1065.83 59.4898Z" fill="white"/>
</g>
<g clip-path="url(#clip1_37_280)">
<path d="M1109.91 56.3364H1112.07L1113.59 58.3179L1114.31 59.1986L1116.73 62.3591H1114.48L1112.87 60.2498L1112.31 59.4827L1109.91 56.3364ZM1117.2 53.7796C1117.2 55.3326 1116.91 56.6678 1116.35 57.7853C1115.78 58.898 1115 59.755 1114.01 60.3563C1113.02 60.9529 1111.9 61.2512 1110.65 61.2512C1109.39 61.2512 1108.27 60.9529 1107.28 60.3563C1106.29 59.755 1105.51 58.8956 1104.95 57.7782C1104.38 56.6607 1104.09 55.3279 1104.09 53.7796C1104.09 52.2265 1104.38 50.8937 1104.95 49.781C1105.51 48.6636 1106.29 47.8066 1107.28 47.21C1108.27 46.6087 1109.39 46.308 1110.65 46.308C1111.9 46.308 1113.02 46.6087 1114.01 47.21C1115 47.8066 1115.78 48.6636 1116.35 49.781C1116.91 50.8937 1117.2 52.2265 1117.2 53.7796ZM1115.02 53.7796C1115.02 52.5959 1114.83 51.5992 1114.45 50.7895C1114.07 49.9751 1113.55 49.3596 1112.89 48.9429C1112.23 48.5215 1111.48 48.3108 1110.65 48.3108C1109.81 48.3108 1109.06 48.5215 1108.41 48.9429C1107.75 49.3596 1107.23 49.9751 1106.84 50.7895C1106.46 51.5992 1106.27 52.5959 1106.27 53.7796C1106.27 54.9633 1106.46 55.9623 1106.84 56.7767C1107.23 57.5864 1107.75 58.2019 1108.41 58.6233C1109.06 59.04 1109.81 59.2483 1110.65 59.2483C1111.48 59.2483 1112.23 59.04 1112.89 58.6233C1113.55 58.2019 1114.07 57.5864 1114.45 56.7767C1114.83 55.9623 1115.02 54.9633 1115.02 53.7796ZM1126.67 56.5282V50.1432H1128.8V61.0523H1126.72V59.1631H1126.6C1126.35 59.7455 1125.95 60.2308 1125.4 60.6191C1124.85 61.0026 1124.16 61.1944 1123.34 61.1944C1122.64 61.1944 1122.02 61.0405 1121.48 60.7327C1120.95 60.4202 1120.53 59.9586 1120.22 59.3478C1119.92 58.737 1119.76 57.9818 1119.76 57.0821V50.1432H1121.89V56.8265C1121.89 57.5698 1122.09 58.1617 1122.5 58.602C1122.92 59.0424 1123.45 59.2625 1124.11 59.2625C1124.51 59.2625 1124.9 59.1631 1125.3 58.9642C1125.69 58.7654 1126.02 58.4647 1126.28 58.0623C1126.55 57.6598 1126.68 57.1484 1126.67 56.5282ZM1134.83 61.2938C1134.14 61.2938 1133.52 61.1659 1132.96 60.9103C1132.4 60.6498 1131.96 60.2734 1131.63 59.781C1131.31 59.2886 1131.15 58.6849 1131.15 57.9699C1131.15 57.3544 1131.27 56.8478 1131.5 56.45C1131.74 56.0523 1132.06 55.7374 1132.46 55.5054C1132.86 55.2734 1133.31 55.0982 1133.81 54.9799C1134.31 54.8615 1134.81 54.7715 1135.33 54.71C1135.98 54.6342 1136.51 54.5727 1136.92 54.5253C1137.33 54.4732 1137.62 54.3904 1137.81 54.2767C1137.99 54.1631 1138.09 53.9784 1138.09 53.7228V53.673C1138.09 53.0528 1137.91 52.5722 1137.56 52.2313C1137.21 51.8904 1136.7 51.7199 1136.01 51.7199C1135.3 51.7199 1134.73 51.8785 1134.32 52.1958C1133.91 52.5083 1133.63 52.8563 1133.48 53.2398L1131.48 52.7853C1131.72 52.1224 1132.06 51.5873 1132.52 51.1801C1132.98 50.7682 1133.5 50.4699 1134.1 50.2853C1134.7 50.0959 1135.33 50.0012 1135.98 50.0012C1136.42 50.0012 1136.88 50.0533 1137.37 50.1574C1137.86 50.2569 1138.32 50.4415 1138.75 50.7114C1139.18 50.9813 1139.53 51.3672 1139.8 51.8691C1140.08 52.3662 1140.22 53.0125 1140.22 53.808V61.0523H1138.14V59.5608H1138.06C1137.92 59.8355 1137.71 60.1053 1137.44 60.3705C1137.16 60.6356 1136.81 60.8558 1136.38 61.031C1135.95 61.2062 1135.43 61.2938 1134.83 61.2938ZM1135.29 59.5892C1135.88 59.5892 1136.38 59.4732 1136.8 59.2412C1137.22 59.0092 1137.54 58.7062 1137.76 58.3321C1137.98 57.9533 1138.09 57.5485 1138.09 57.1176V55.7114C1138.02 55.7872 1137.87 55.8582 1137.65 55.9245C1137.44 55.986 1137.2 56.0405 1136.92 56.0878C1136.65 56.1304 1136.38 56.1707 1136.12 56.2086C1135.86 56.2417 1135.64 56.2701 1135.46 56.2938C1135.05 56.3459 1134.68 56.4335 1134.34 56.5566C1134 56.6797 1133.73 56.8572 1133.53 57.0892C1133.33 57.3165 1133.23 57.6195 1133.23 57.9983C1133.23 58.5239 1133.42 58.9216 1133.81 59.1915C1134.2 59.4567 1134.69 59.5892 1135.29 59.5892ZM1143.04 61.0523V50.1432H1145.1V51.8762H1145.21C1145.41 51.289 1145.76 50.8274 1146.26 50.4912C1146.77 50.1503 1147.34 49.9799 1147.98 49.9799C1148.11 49.9799 1148.27 49.9846 1148.45 49.9941C1148.63 50.0035 1148.78 50.0154 1148.88 50.0296V52.0608C1148.8 52.0372 1148.65 52.0111 1148.43 51.9827C1148.21 51.9496 1147.99 51.933 1147.77 51.933C1147.27 51.933 1146.83 52.0395 1146.43 52.2526C1146.04 52.4609 1145.74 52.7521 1145.51 53.1262C1145.28 53.4955 1145.17 53.9169 1145.17 54.3904V61.0523H1143.04ZM1156.46 50.1432V51.8478H1150.5V50.1432H1156.46ZM1152.1 47.5296H1154.22V57.8492C1154.22 58.2611 1154.28 58.5712 1154.4 58.7796C1154.53 58.9832 1154.69 59.1229 1154.88 59.1986C1155.08 59.2696 1155.29 59.3051 1155.53 59.3051C1155.7 59.3051 1155.85 59.2933 1155.97 59.2696C1156.1 59.246 1156.2 59.227 1156.27 59.2128L1156.66 60.9671C1156.53 61.0144 1156.36 61.0618 1156.13 61.1091C1155.9 61.1612 1155.62 61.1896 1155.28 61.1944C1154.72 61.2038 1154.2 61.1044 1153.72 60.8961C1153.23 60.6877 1152.84 60.3658 1152.54 59.9301C1152.25 59.4945 1152.1 58.9477 1152.1 58.2895V47.5296ZM1163.28 61.2725C1162.26 61.2725 1161.37 61.0381 1160.61 60.5694C1159.84 60.1006 1159.25 59.4448 1158.83 58.602C1158.41 57.7592 1158.2 56.7744 1158.2 55.6475C1158.2 54.5158 1158.41 53.5263 1158.83 52.6787C1159.25 51.8312 1159.84 51.173 1160.61 50.7043C1161.37 50.2355 1162.26 50.0012 1163.28 50.0012C1164.31 50.0012 1165.2 50.2355 1165.96 50.7043C1166.72 51.173 1167.32 51.8312 1167.74 52.6787C1168.16 53.5263 1168.37 54.5158 1168.37 55.6475C1168.37 56.7744 1168.16 57.7592 1167.74 58.602C1167.32 59.4448 1166.72 60.1006 1165.96 60.5694C1165.2 61.0381 1164.31 61.2725 1163.28 61.2725ZM1163.29 59.4898C1163.95 59.4898 1164.5 59.3146 1164.94 58.9642C1165.37 58.6139 1165.7 58.1475 1165.91 57.5651C1166.12 56.9827 1166.22 56.3411 1166.22 55.6404C1166.22 54.9444 1166.12 54.3051 1165.91 53.7228C1165.7 53.1356 1165.37 52.6645 1164.94 52.3094C1164.5 51.9543 1163.95 51.7767 1163.29 51.7767C1162.62 51.7767 1162.07 51.9543 1161.63 52.3094C1161.19 52.6645 1160.87 53.1356 1160.66 53.7228C1160.45 54.3051 1160.34 54.9444 1160.34 55.6404C1160.34 56.3411 1160.45 56.9827 1160.66 57.5651C1160.87 58.1475 1161.19 58.6139 1161.63 58.9642C1162.07 59.3146 1162.62 59.4898 1163.29 59.4898ZM1178.91 52.8066L1176.99 53.1475C1176.91 52.9013 1176.78 52.6669 1176.61 52.4444C1176.44 52.2218 1176.2 52.0395 1175.91 51.8975C1175.62 51.7554 1175.25 51.6844 1174.81 51.6844C1174.21 51.6844 1173.71 51.8194 1173.3 52.0892C1172.9 52.3544 1172.7 52.6977 1172.7 53.1191C1172.7 53.4837 1172.84 53.7772 1173.11 53.9998C1173.38 54.2223 1173.81 54.4046 1174.41 54.5466L1176.14 54.9444C1177.15 55.1764 1177.9 55.5338 1178.39 56.0168C1178.88 56.4998 1179.13 57.1271 1179.13 57.8989C1179.13 58.5523 1178.94 59.1347 1178.56 59.6461C1178.19 60.1527 1177.66 60.5504 1176.99 60.8392C1176.32 61.1281 1175.55 61.2725 1174.67 61.2725C1173.45 61.2725 1172.45 61.0121 1171.68 60.4912C1170.91 59.9657 1170.43 59.2199 1170.26 58.254L1172.31 57.9415C1172.44 58.4765 1172.7 58.8814 1173.1 59.156C1173.5 59.4259 1174.01 59.5608 1174.65 59.5608C1175.35 59.5608 1175.91 59.4164 1176.32 59.1276C1176.74 58.834 1176.95 58.4765 1176.95 58.0551C1176.95 57.7142 1176.82 57.4278 1176.56 57.1958C1176.31 56.9638 1175.93 56.7886 1175.41 56.6702L1173.56 56.2654C1172.54 56.0334 1171.79 55.664 1171.3 55.1574C1170.82 54.6508 1170.58 54.0092 1170.58 53.2327C1170.58 52.5888 1170.76 52.0253 1171.12 51.5424C1171.48 51.0594 1171.97 50.683 1172.61 50.4131C1173.24 50.1385 1173.97 50.0012 1174.79 50.0012C1175.97 50.0012 1176.9 50.2569 1177.57 50.7682C1178.25 51.2748 1178.7 51.9543 1178.91 52.8066Z" fill="white"/>
</g>
<path d="M1222.1 60.0523V45.5069H1231.22V47.3961H1224.29V51.8279H1230.74V53.71H1224.29V58.1631H1231.3V60.0523H1222.1ZM1235.65 49.1432L1238.06 53.3904L1240.49 49.1432H1242.81L1239.41 54.5978L1242.84 60.0523H1240.52L1238.06 55.9756L1235.61 60.0523H1233.28L1236.68 54.5978L1233.32 49.1432H1235.65ZM1244.99 64.1432V49.1432H1247.07V50.9117H1247.25C1247.37 50.6844 1247.55 50.4216 1247.78 50.1233C1248.01 49.825 1248.33 49.5646 1248.74 49.3421C1249.16 49.1148 1249.7 49.0012 1250.38 49.0012C1251.26 49.0012 1252.04 49.2237 1252.74 49.6688C1253.43 50.1139 1253.97 50.7554 1254.36 51.5935C1254.76 52.4316 1254.96 53.4401 1254.96 54.6191C1254.96 55.798 1254.76 56.8089 1254.37 57.6517C1253.98 58.4898 1253.44 59.1361 1252.75 59.5907C1252.06 60.0405 1251.28 60.2654 1250.4 60.2654C1249.74 60.2654 1249.19 60.1541 1248.77 59.9316C1248.36 59.709 1248.03 59.4486 1247.79 59.1503C1247.56 58.852 1247.37 58.5869 1247.25 58.3549H1247.12V64.1432H1244.99ZM1247.07 54.5978C1247.07 55.3648 1247.19 56.0372 1247.41 56.6148C1247.63 57.1925 1247.95 57.6446 1248.37 57.9713C1248.8 58.2933 1249.31 58.4543 1249.92 58.4543C1250.56 58.4543 1251.09 58.2862 1251.51 57.95C1251.94 57.6091 1252.26 57.1475 1252.48 56.5651C1252.7 55.9827 1252.81 55.3269 1252.81 54.5978C1252.81 53.8781 1252.7 53.2318 1252.49 52.6588C1252.27 52.0859 1251.95 51.6337 1251.52 51.3023C1251.09 50.9709 1250.56 50.8051 1249.92 50.8051C1249.31 50.8051 1248.79 50.9638 1248.36 51.281C1247.94 51.5982 1247.62 52.0409 1247.4 52.6091C1247.18 53.1773 1247.07 53.8402 1247.07 54.5978ZM1262.04 60.2725C1260.96 60.2725 1260.04 60.0428 1259.26 59.5836C1258.49 59.1195 1257.89 58.4685 1257.47 57.6304C1257.06 56.7876 1256.85 55.8004 1256.85 54.6688C1256.85 53.5514 1257.06 52.5665 1257.47 51.7142C1257.89 50.862 1258.48 50.1967 1259.23 49.7185C1259.99 49.2403 1260.88 49.0012 1261.89 49.0012C1262.51 49.0012 1263.1 49.103 1263.68 49.3066C1264.26 49.5102 1264.78 49.8298 1265.24 50.2654C1265.69 50.701 1266.06 51.2668 1266.32 51.9628C1266.59 52.6541 1266.72 53.4945 1266.72 54.4841V55.237H1258.05V53.6461H1264.64C1264.64 53.0873 1264.53 52.5926 1264.3 52.1617C1264.07 51.7261 1263.75 51.3828 1263.34 51.1319C1262.93 50.8809 1262.45 50.7554 1261.9 50.7554C1261.31 50.7554 1260.79 50.9022 1260.34 51.1958C1259.9 51.4846 1259.56 51.8634 1259.32 52.3321C1259.08 52.7962 1258.96 53.3004 1258.96 53.8449V55.0878C1258.96 55.817 1259.09 56.4373 1259.35 56.9486C1259.61 57.46 1259.97 57.8506 1260.43 58.1205C1260.9 58.3856 1261.44 58.5182 1262.06 58.5182C1262.46 58.5182 1262.83 58.4614 1263.16 58.3478C1263.49 58.2294 1263.78 58.0542 1264.02 57.8222C1264.26 57.5902 1264.45 57.3037 1264.57 56.9628L1266.58 57.325C1266.42 57.9169 1266.14 58.4354 1265.72 58.8804C1265.31 59.3208 1264.79 59.664 1264.16 59.9103C1263.54 60.1517 1262.83 60.2725 1262.04 60.2725ZM1269.08 60.0523V49.1432H1271.13V50.8762H1271.24C1271.44 50.289 1271.79 49.8274 1272.29 49.4912C1272.8 49.1503 1273.37 48.9799 1274.01 48.9799C1274.14 48.9799 1274.3 48.9846 1274.48 48.9941C1274.67 49.0035 1274.81 49.0154 1274.91 49.0296V51.0608C1274.83 51.0372 1274.68 51.0111 1274.46 50.9827C1274.24 50.9496 1274.02 50.933 1273.81 50.933C1273.3 50.933 1272.86 51.0395 1272.46 51.2526C1272.08 51.4609 1271.77 51.7521 1271.54 52.1262C1271.31 52.4955 1271.2 52.9169 1271.2 53.3904V60.0523H1269.08ZM1276.75 60.0523V49.1432H1278.88V60.0523H1276.75ZM1277.82 47.46C1277.45 47.46 1277.14 47.3369 1276.87 47.0907C1276.61 46.8397 1276.48 46.5414 1276.48 46.1958C1276.48 45.8454 1276.61 45.5471 1276.87 45.3009C1277.14 45.0499 1277.45 44.9245 1277.82 44.9245C1278.19 44.9245 1278.51 45.0499 1278.77 45.3009C1279.03 45.5471 1279.17 45.8454 1279.17 46.1958C1279.17 46.5414 1279.03 46.8397 1278.77 47.0907C1278.51 47.3369 1278.19 47.46 1277.82 47.46ZM1286.43 60.2725C1285.36 60.2725 1284.43 60.0428 1283.66 59.5836C1282.89 59.1195 1282.29 58.4685 1281.87 57.6304C1281.45 56.7876 1281.24 55.8004 1281.24 54.6688C1281.24 53.5514 1281.45 52.5665 1281.87 51.7142C1282.29 50.862 1282.88 50.1967 1283.63 49.7185C1284.39 49.2403 1285.27 49.0012 1286.28 49.0012C1286.9 49.0012 1287.5 49.103 1288.07 49.3066C1288.65 49.5102 1289.17 49.8298 1289.63 50.2654C1290.09 50.701 1290.45 51.2668 1290.72 51.9628C1290.98 52.6541 1291.11 53.4945 1291.11 54.4841V55.237H1282.44V53.6461H1289.03C1289.03 53.0873 1288.92 52.5926 1288.69 52.1617C1288.47 51.7261 1288.15 51.3828 1287.73 51.1319C1287.33 50.8809 1286.85 50.7554 1286.3 50.7554C1285.7 50.7554 1285.18 50.9022 1284.74 51.1958C1284.3 51.4846 1283.96 51.8634 1283.71 52.3321C1283.48 52.7962 1283.36 53.3004 1283.36 53.8449V55.0878C1283.36 55.817 1283.49 56.4373 1283.74 56.9486C1284 57.46 1284.36 57.8506 1284.83 58.1205C1285.29 58.3856 1285.83 58.5182 1286.46 58.5182C1286.86 58.5182 1287.22 58.4614 1287.56 58.3478C1287.89 58.2294 1288.17 58.0542 1288.42 57.8222C1288.66 57.5902 1288.84 57.3037 1288.97 56.9628L1290.98 57.325C1290.82 57.9169 1290.53 58.4354 1290.11 58.8804C1289.7 59.3208 1289.18 59.664 1288.56 59.9103C1287.94 60.1517 1287.23 60.2725 1286.43 60.2725ZM1287.66 47.8364L1286.21 45.933L1284.74 47.8364H1282.83V47.7299L1285.32 44.7185H1287.09L1289.59 47.7299V47.8364H1287.66ZM1295.59 53.575V60.0523H1293.47V49.1432H1295.51V50.9188H1295.64C1295.89 50.3411 1296.29 49.8771 1296.82 49.5267C1297.36 49.1764 1298.04 49.0012 1298.86 49.0012C1299.6 49.0012 1300.26 49.1574 1300.81 49.4699C1301.37 49.7777 1301.81 50.237 1302.11 50.8478C1302.42 51.4586 1302.58 52.2138 1302.58 53.1134V60.0523H1300.45V53.3691C1300.45 52.5783 1300.25 51.9605 1299.83 51.5154C1299.42 51.0656 1298.86 50.8407 1298.14 50.8407C1297.64 50.8407 1297.21 50.9472 1296.82 51.1603C1296.44 51.3733 1296.14 51.6858 1295.92 52.0978C1295.7 52.505 1295.59 52.9974 1295.59 53.575ZM1310.02 60.2725C1308.96 60.2725 1308.05 60.0334 1307.29 59.5551C1306.53 59.0722 1305.95 58.4069 1305.54 57.5594C1305.14 56.7119 1304.93 55.7412 1304.93 54.6475C1304.93 53.5395 1305.14 52.5618 1305.56 51.7142C1305.98 50.862 1306.56 50.1967 1307.32 49.7185C1308.08 49.2403 1308.97 49.0012 1310 49.0012C1310.83 49.0012 1311.56 49.1551 1312.21 49.4628C1312.86 49.7658 1313.39 50.192 1313.78 50.7412C1314.19 51.2905 1314.42 51.932 1314.5 52.6659H1312.43C1312.32 52.1546 1312.06 51.7142 1311.65 51.3449C1311.25 50.9756 1310.71 50.7909 1310.03 50.7909C1309.44 50.7909 1308.92 50.9472 1308.48 51.2597C1308.04 51.5675 1307.69 52.0078 1307.45 52.5807C1307.2 53.1489 1307.08 53.8212 1307.08 54.5978C1307.08 55.3932 1307.2 56.0798 1307.44 56.6574C1307.68 57.2351 1308.02 57.6825 1308.46 57.9998C1308.91 58.317 1309.43 58.4756 1310.03 58.4756C1310.44 58.4756 1310.8 58.4022 1311.13 58.2554C1311.46 58.1039 1311.74 57.8885 1311.96 57.6091C1312.19 57.3298 1312.34 56.9936 1312.43 56.6006H1314.5C1314.42 57.3061 1314.19 57.9358 1313.81 58.4898C1313.43 59.0438 1312.91 59.4794 1312.27 59.7966C1311.63 60.1139 1310.88 60.2725 1310.02 60.2725ZM1316.77 60.0523V49.1432H1318.89V60.0523H1316.77ZM1317.84 47.46C1317.47 47.46 1317.16 47.3369 1316.89 47.0907C1316.63 46.8397 1316.5 46.5414 1316.5 46.1958C1316.5 45.8454 1316.63 45.5471 1316.89 45.3009C1317.16 45.0499 1317.47 44.9245 1317.84 44.9245C1318.21 44.9245 1318.53 45.0499 1318.79 45.3009C1319.05 45.5471 1319.19 45.8454 1319.19 46.1958C1319.19 46.5414 1319.05 46.8397 1318.79 47.0907C1318.53 47.3369 1318.21 47.46 1317.84 47.46ZM1324.93 60.2938C1324.24 60.2938 1323.61 60.1659 1323.05 59.9103C1322.49 59.6498 1322.05 59.2734 1321.72 58.781C1321.4 58.2886 1321.24 57.6849 1321.24 56.9699C1321.24 56.3544 1321.36 55.8478 1321.6 55.45C1321.83 55.0523 1322.15 54.7374 1322.55 54.5054C1322.96 54.2734 1323.41 54.0982 1323.9 53.9799C1324.4 53.8615 1324.91 53.7715 1325.42 53.71C1326.08 53.6342 1326.61 53.5727 1327.01 53.5253C1327.42 53.4732 1327.72 53.3904 1327.9 53.2767C1328.09 53.1631 1328.18 52.9784 1328.18 52.7228V52.673C1328.18 52.0528 1328 51.5722 1327.65 51.2313C1327.31 50.8904 1326.79 50.7199 1326.11 50.7199C1325.39 50.7199 1324.83 50.8785 1324.42 51.1958C1324.01 51.5083 1323.73 51.8563 1323.57 52.2398L1321.57 51.7853C1321.81 51.1224 1322.16 50.5873 1322.61 50.1801C1323.07 49.7682 1323.6 49.4699 1324.19 49.2853C1324.79 49.0959 1325.42 49.0012 1326.08 49.0012C1326.51 49.0012 1326.97 49.0533 1327.46 49.1574C1327.95 49.2569 1328.41 49.4415 1328.84 49.7114C1329.27 49.9813 1329.62 50.3672 1329.9 50.8691C1330.17 51.3662 1330.31 52.0125 1330.31 52.808V60.0523H1328.24V58.5608H1328.15C1328.01 58.8355 1327.81 59.1053 1327.53 59.3705C1327.26 59.6356 1326.91 59.8558 1326.47 60.031C1326.04 60.2062 1325.53 60.2938 1324.93 60.2938ZM1325.39 58.5892C1325.98 58.5892 1326.48 58.4732 1326.89 58.2412C1327.32 58.0092 1327.63 57.7062 1327.85 57.3321C1328.08 56.9533 1328.19 56.5485 1328.19 56.1176V54.7114C1328.11 54.7872 1327.96 54.8582 1327.75 54.9245C1327.53 54.986 1327.29 55.0405 1327.01 55.0878C1326.74 55.1304 1326.47 55.1707 1326.21 55.2086C1325.95 55.2417 1325.73 55.2701 1325.56 55.2938C1325.15 55.3459 1324.77 55.4335 1324.43 55.5566C1324.09 55.6797 1323.82 55.8572 1323.62 56.0892C1323.42 56.3165 1323.32 56.6195 1323.32 56.9983C1323.32 57.5239 1323.52 57.9216 1323.9 58.1915C1324.29 58.4567 1324.79 58.5892 1325.39 58.5892ZM1341.31 51.8066L1339.39 52.1475C1339.31 51.9013 1339.18 51.6669 1339 51.4444C1338.83 51.2218 1338.6 51.0395 1338.31 50.8975C1338.02 50.7554 1337.65 50.6844 1337.21 50.6844C1336.61 50.6844 1336.1 50.8194 1335.7 51.0892C1335.3 51.3544 1335.1 51.6977 1335.1 52.1191C1335.1 52.4837 1335.23 52.7772 1335.5 52.9998C1335.77 53.2223 1336.21 53.4046 1336.81 53.5466L1338.54 53.9444C1339.55 54.1764 1340.3 54.5338 1340.79 55.0168C1341.28 55.4998 1341.53 56.1271 1341.53 56.8989C1341.53 57.5523 1341.34 58.1347 1340.96 58.6461C1340.58 59.1527 1340.06 59.5504 1339.39 59.8392C1338.72 60.1281 1337.95 60.2725 1337.07 60.2725C1335.84 60.2725 1334.85 60.0121 1334.08 59.4912C1333.3 58.9657 1332.83 58.2199 1332.66 57.254L1334.71 56.9415C1334.84 57.4765 1335.1 57.8814 1335.5 58.156C1335.89 58.4259 1336.41 58.5608 1337.05 58.5608C1337.75 58.5608 1338.3 58.4164 1338.72 58.1276C1339.14 57.834 1339.35 57.4765 1339.35 57.0551C1339.35 56.7142 1339.22 56.4278 1338.96 56.1958C1338.71 55.9638 1338.33 55.7886 1337.8 55.6702L1335.96 55.2654C1334.94 55.0334 1334.19 54.664 1333.7 54.1574C1333.22 53.6508 1332.98 53.0092 1332.98 52.2327C1332.98 51.5888 1333.16 51.0253 1333.51 50.5424C1333.87 50.0594 1334.37 49.683 1335.01 49.4131C1335.64 49.1385 1336.37 49.0012 1337.19 49.0012C1338.37 49.0012 1339.29 49.2569 1339.97 49.7682C1340.65 50.2748 1341.1 50.9543 1341.31 51.8066Z" fill="white"/>
<circle cx="1427.32" cy="53" r="31.7091" fill="#006494"/>
<path d="M1442.45 69.26V65.6011C1442.45 63.6603 1441.68 61.799 1440.31 60.4266C1438.93 59.0543 1437.07 58.2833 1435.13 58.2833H1420.5C1418.55 58.2833 1416.69 59.0543 1415.32 60.4266C1413.95 61.799 1413.18 63.6603 1413.18 65.6011V69.26M1435.13 43.6476C1435.13 47.6891 1431.85 50.9654 1427.81 50.9654C1423.77 50.9654 1420.5 47.6891 1420.5 43.6476C1420.5 39.6061 1423.77 36.3298 1427.81 36.3298C1431.85 36.3298 1435.13 39.6061 1435.13 43.6476Z" stroke="white" stroke-width="3.40867" stroke-linecap="round" stroke-linejoin="round"/>
<defs>
<clipPath id="clip0_37_280">
<rect width="54" height="30" fill="white" transform="translate(1019.9 38.0508)"/>
</clipPath>
<clipPath id="clip1_37_280">
<rect width="80" height="30" fill="white" transform="translate(1101.9 38.0508)"/>
</clipPath>
</defs>
</svg>
